<?xml version="1.0" encoding="iso-8859-1"?>
<!-- Generator: Adobe Illustrator 17.1.0, SVG Export Plug-In . SVG Version: 6.00 Build 0)  -->
<!DOCTYPE svg PUBLIC "-//W3C//DTD SVG 1.1//EN" "http://www.w3.org/Graphics/SVG/1.1/DTD/svg11.dtd">
<svg version="1.1" xmlns="http://www.w3.org/2000/svg" xmlns:xlink="http://www.w3.org/1999/xlink" x="0px" y="0px"
	 viewBox="0 0 400 400" style="enable-background:new 0 0 400 400;" xml:space="preserve">
<g id="guide">
	<rect x="1.155" y="-0.035" style="fill:none;" width="400" height="400"/>
</g>
<g id="&#x30EC;&#x30A4;&#x30E4;&#x30FC;_1">
	<g>
		<path style="fill:#111C2A;" d="M243.306,32.893l-3.384,19.523c0.98-1.905,2.831-1.742,4.854-0.989L257.331,56l1.715-3.275
			l9.163-31.336c0.726-2.486-0.699-5.081-3.212-5.779l-18.707-5.38c-2.486-0.698-5.071,0.726-5.788,3.221l-4.019,14.007l3.039,0.426
			C241.945,28.211,243.66,30.47,243.306,32.893z"/>
		<path style="fill:#111C2A;" d="M214.311,45.449c2.35,0.018,4.228,1.905,4.237,4.255v27.915l8.501,1.197l9.426-25.874
			c0.054-0.182,0.19-0.282,0.263-0.445l2.286-16.194c0.345-2.459-1.361-4.699-3.801-5.035l-3.03-0.426l-15.332-2.159
			c-2.432-0.336-4.69,1.343-5.017,3.792l-1.307,9.299l-0.526,3.692L214.311,45.449z"/>
		<path style="fill:#111C2A;" d="M192.647,95.01l17.672,0.009c2.332-0.009,4.228-1.896,4.237-4.237v-9.535l0.009-27.906
			c0-2.368-1.905-4.264-4.273-4.255l-4.273-0.009l-13.354,0.009c-2.196-0.027-3.883,1.624-4.164,3.747
			c-0.018,0.154-0.1,0.308-0.082,0.49l-0.018,27.534v9.934C188.401,93.114,190.306,95.001,192.647,95.01z"/>
		<path style="fill:#111C2A;" d="M297.903,57.378l-9.861,17.192c1.578-1.452,3.257-0.671,4.899,0.735l10.242,8.591l2.731-2.495
			l19.324-26.309c1.533-2.087,1.079-5.017-1.043-6.532l-15.74-11.449c-2.096-1.506-5.008-1.053-6.541,1.043l-8.564,11.794
			l2.713,1.434C298.22,52.516,299.064,55.228,297.903,57.378z"/>
		<path style="fill:#111C2A;" d="M266.358,59.266c2.205,0.825,3.33,3.239,2.531,5.443l-9.553,26.237l7.584,4.037l17.7-21.093
			c0.118-0.154,0.281-0.199,0.399-0.327l7.693-14.443c1.161-2.186,0.327-4.88-1.851-6.033l-2.703-1.424l-13.663-7.276
			c-2.168-1.152-4.872-0.345-6.015,1.841l-4.409,8.292l-1.751,3.293L266.358,59.266z"/>
		<path style="fill:#111C2A;" d="M229.054,98.43l16.602,6.051c2.195,0.789,4.618-0.336,5.425-2.532l3.266-8.954l9.553-26.228
			c0.807-2.223-0.336-4.663-2.558-5.462l-4.01-1.47l-12.556-4.554c-2.05-0.78-4.209,0.199-5.189,2.095
			c-0.072,0.145-0.199,0.254-0.245,0.426l-9.435,25.865l-3.402,9.344C225.715,95.201,226.858,97.623,229.054,98.43z"/>
		<path style="fill:#111C2A;" d="M340.837,99.065l-15.151,12.783c1.982-0.825,3.293,0.49,4.355,2.368l6.686,11.576l3.42-1.407
			l27.158-18.117c2.155-1.433,2.726-4.345,1.252-6.495l-10.878-16.14c-1.452-2.132-4.346-2.703-6.501-1.261l-12.084,8.156
			l2.059,2.277C342.797,94.611,342.661,97.441,340.837,99.065z"/>
		<path style="fill:#111C2A;" d="M310.549,90.057c1.787,1.524,2.018,4.182,0.517,5.979l-17.954,21.383l5.747,6.387l23.846-13.763
			c0.163-0.109,0.335-0.091,0.49-0.172l12.166-10.941c1.842-1.661,1.978-4.473,0.327-6.305l-2.055-2.259l-10.351-11.513
			c-1.642-1.824-4.459-1.987-6.283-0.327l-6.976,6.287l-2.772,2.495L310.549,90.057z"/>
		<path style="fill:#111C2A;" d="M262.099,114.098l13.531,11.367c1.792,1.488,4.455,1.261,5.96-0.526l6.133-7.294l17.95-21.383
			c1.519-1.814,1.279-4.5-0.54-6.005l-3.262-2.758l-10.243-8.573c-1.66-1.433-4.023-1.252-5.593,0.2
			c-0.118,0.109-0.276,0.172-0.376,0.317l-17.714,21.075l-6.391,7.621C260.067,109.916,260.312,112.583,262.099,114.098z"/>
		<path style="fill:#111C2A;" d="M366.924,152.927l-18.612,6.831c2.146-0.1,2.93,1.578,3.284,3.71l2.322,13.164l3.697-0.154
			l31.716-7.73c2.513-0.617,4.046-3.157,3.398-5.679l-4.7-18.888c-0.635-2.504-3.161-4.019-5.679-3.402l-14.148,3.529l1.161,2.839
			C370.29,149.407,369.192,152.02,366.924,152.927z"/>
		<path style="fill:#111C2A;" d="M341.544,134.094c1.157,2.05,0.467,4.627-1.56,5.797l-24.186,13.962l3.216,7.965l27.117-4.781
			c0.19-0.045,0.349,0.027,0.517,0.009l15.177-6.124c2.296-0.925,3.388-3.529,2.463-5.806l-1.161-2.831l-5.788-14.361
			c-0.921-2.268-3.511-3.393-5.793-2.449l-8.705,3.511l-3.456,1.406L341.544,134.094z"/>
		<path style="fill:#111C2A;" d="M287.792,140.117l8.827,15.314c1.175,2.014,3.755,2.703,5.783,1.542l8.256-4.754l24.178-13.953
			c2.05-1.189,2.744-3.792,1.551-5.834l-2.123-3.701l-6.695-11.558c-1.066-1.914-3.352-2.558-5.321-1.733
			c-0.15,0.064-0.317,0.064-0.463,0.172l-23.855,13.745l-8.609,4.971C287.311,135.499,286.631,138.085,287.792,140.117z"/>
		<path style="fill:#111C2A;" d="M373.016,212.459l-19.827,0.054c2.05,0.635,2.213,2.486,1.819,4.609l-2.323,13.163l3.529,1.125
			l32.447,3.575c2.572,0.29,4.881-1.579,5.135-4.164l2.046-19.36c0.258-2.567-1.597-4.863-4.174-5.144l-14.502-1.524l0.118,3.066
			C377.384,210.3,375.457,212.387,373.016,212.459z"/>
		<path style="fill:#111C2A;" d="M355.607,186.086c0.386,2.322-1.143,4.5-3.448,4.908l-27.502,4.844l0.299,8.591l27.117,4.781
			c0.19,0.027,0.318,0.145,0.481,0.182l16.357-0.563c2.473-0.082,4.391-2.15,4.3-4.618l-0.123-3.048l-0.53-15.477
			c-0.086-2.45-2.137-4.391-4.604-4.282l-9.381,0.327l-3.729,0.127L355.607,186.086z"/>
		<path style="fill:#111C2A;" d="M303.038,173.358l3.057,17.409c0.413,2.296,2.603,3.829,4.908,3.421l9.381-1.642l27.493-4.835
			c2.332-0.417,3.874-2.631,3.452-4.953l-0.726-4.209l-2.341-13.146c-0.345-2.168-2.277-3.547-4.409-3.448
			c-0.163,0.009-0.318-0.046-0.49,0l-27.121,4.763l-9.789,1.724C304.163,168.849,302.638,171.054,303.038,173.358z"/>
		<path style="fill:#111C2A;" d="M358.378,270.485l-18.648-6.732c1.706,1.297,1.229,3.094,0.131,4.953l-6.686,11.576l2.935,2.259
			l29.267,14.461c2.318,1.152,5.126,0.19,6.251-2.159l8.542-17.491c1.12-2.322,0.163-5.108-2.164-6.26l-13.105-6.387l-0.939,2.921
			C363.223,269.95,360.696,271.247,358.378,270.485z"/>
		<path style="fill:#111C2A;" d="M351.039,239.749c-0.431,2.313-2.613,3.837-4.917,3.438l-27.502-4.854l-2.654,8.165l23.846,13.771
			c0.168,0.091,0.245,0.245,0.386,0.336l15.563,5.071c2.354,0.762,4.862-0.526,5.62-2.876l0.93-2.903l4.795-14.724
			c0.757-2.331-0.508-4.854-2.863-5.606l-8.927-2.894l-3.547-1.152L351.039,239.749z"/>
		<path style="fill:#111C2A;" d="M305.995,209.81l-3.08,17.401c-0.399,2.296,1.134,4.491,3.439,4.899l9.376,1.66l27.494,4.863
			c2.331,0.408,4.536-1.143,4.935-3.474l0.757-4.2l2.3-13.164c0.412-2.15-0.93-4.11-2.967-4.745
			c-0.159-0.046-0.281-0.154-0.463-0.163l-27.112-4.809l-9.789-1.724C308.594,205.955,306.408,207.506,305.995,209.81z"/>
		<path style="fill:#111C2A;" d="M324.779,320.002L309.556,307.3c1.157,1.805,0.095,3.329-1.57,4.699l-10.243,8.592l1.982,3.13
			l22.558,23.597c1.787,1.869,4.754,1.932,6.614,0.109l14.007-13.518c1.846-1.796,1.901-4.744,0.109-6.614l-10.129-10.487
			l-1.883,2.422C329.51,321.163,326.694,321.517,324.779,320.002z"/>
		<path style="fill:#111C2A;" d="M328.395,288.612c-1.197,2.023-3.77,2.713-5.797,1.551l-24.182-13.971l-5.289,6.768l17.7,21.093
			c0.127,0.145,0.145,0.318,0.245,0.454l12.892,10.079c1.95,1.524,4.749,1.17,6.264-0.771l1.869-2.414l9.54-12.202
			c1.511-1.923,1.184-4.727-0.772-6.242l-7.398-5.77l-2.939-2.304L328.395,288.612z"/>
		<path style="fill:#111C2A;" d="M296.306,245.074l-8.845,15.296c-1.161,2.023-0.472,4.609,1.556,5.779l8.242,4.772l24.173,13.971
			c2.051,1.179,4.654,0.472,5.825-1.578l2.15-3.693l6.664-11.576c1.12-1.878,0.531-4.182-1.166-5.471
			c-0.136-0.1-0.213-0.245-0.381-0.317l-23.833-13.79l-8.609-4.972C300.066,242.343,297.481,243.051,296.306,245.074z"/>
		<path style="fill:#111C2A;" d="M276.27,355.047l-9.961-17.146c0.467,2.096-1.053,3.166-3.085,3.883l-12.561,4.572l0.789,3.62
			l13.128,29.889c1.043,2.368,3.81,3.438,6.178,2.359l17.786-7.911c2.349-1.061,3.411-3.81,2.368-6.178l-5.933-13.323l-2.599,1.638
			C280.321,357.747,277.549,357.121,276.27,355.047z"/>
		<path style="fill:#111C2A;" d="M290.405,326.779c-1.819,1.497-4.473,1.27-5.979-0.526l-17.945-21.392l-7.29,4.554l9.422,25.874
			c0.068,0.172,0.027,0.345,0.077,0.508l8.664,13.881c1.311,2.095,4.064,2.721,6.151,1.415l2.581-1.633l13.136-8.192
			c2.078-1.297,2.731-4.046,1.411-6.133l-4.976-7.956l-1.978-3.166L290.405,326.779z"/>
		<path style="fill:#111C2A;" d="M275.14,274.895l-13.545,11.349c-1.783,1.506-2.019,4.164-0.512,5.96l6.115,7.303l17.936,21.401
			c1.524,1.806,4.209,2.032,6.01,0.508l3.284-2.731l10.22-8.61c1.696-1.379,1.928-3.738,0.776-5.534
			c-0.091-0.145-0.118-0.3-0.25-0.426l-17.677-21.111l-6.392-7.612C279.608,273.615,276.937,273.397,275.14,274.895z"/>
		<path style="fill:#111C2A;" d="M218.698,371.382l-3.493-19.519c-0.277,2.132-2.073,2.613-4.227,2.595h-13.368l-0.494,3.67
			l2.114,32.579c0.168,2.585,2.404,4.536,4.994,4.336l19.419-1.352c2.572-0.2,4.509-2.413,4.341-4.999l-1.021-14.552l-2.999,0.653
			C221.583,375.31,219.192,373.768,218.698,371.382z"/>
		<path style="fill:#111C2A;" d="M241.65,349.659c-2.223,0.78-4.636-0.345-5.439-2.54l-9.544-26.246l-8.41,1.787l0.005,27.534
			c0.005,0.19-0.095,0.336-0.1,0.508l3.393,16.008c0.512,2.422,2.885,3.946,5.298,3.429l2.98-0.644l15.146-3.211
			c2.4-0.508,3.951-2.867,3.425-5.28l-1.955-9.177l-0.776-3.656L241.65,349.659z"/>
		<path style="fill:#111C2A;" d="M245.052,295.679l-16.611,6.033c-2.191,0.807-3.32,3.221-2.522,5.425l3.248,8.954l9.539,26.246
			c0.812,2.214,3.257,3.348,5.47,2.531l4.023-1.442l12.547-4.591c2.064-0.717,3.089-2.858,2.622-4.945
			c-0.036-0.163-0.009-0.317-0.091-0.481l-9.39-25.883l-3.402-9.345C249.688,296.006,247.252,294.881,245.052,295.679z"/>
		<path style="fill:#111C2A;" d="M159.012,367.045l3.393-19.537c-0.989,1.905-2.839,1.751-4.858,0.989l-12.565-4.573l-1.719,3.284
			l-9.154,31.331c-0.726,2.486,0.708,5.09,3.212,5.788l18.711,5.371c2.481,0.689,5.063-0.726,5.788-3.212l4.015-14.026l-3.039-0.417
			C160.381,371.718,158.658,369.459,159.012,367.045z"/>
		<path style="fill:#111C2A;" d="M188.011,354.476c-2.359-0.018-4.241-1.905-4.241-4.246l0.005-27.924l-8.514-1.198l-9.413,25.874
			c-0.059,0.182-0.204,0.29-0.263,0.444l-2.291,16.208c-0.345,2.449,1.361,4.69,3.806,5.035l3.025,0.408l15.328,2.168
			c2.432,0.336,4.695-1.342,5.026-3.801l1.302-9.29l0.517-3.697L188.011,354.476z"/>
		<path style="fill:#111C2A;" d="M209.671,304.915l-17.673-0.009c-2.336,0.009-4.223,1.896-4.227,4.237l-0.009,9.526l-0.013,27.924
			c0.005,2.359,1.914,4.264,4.278,4.246l4.273,0.027l13.359-0.027c2.186,0.036,3.883-1.624,4.155-3.747
			c0.023-0.163,0.1-0.299,0.082-0.481l0.027-27.534v-9.943C213.917,306.811,212.007,304.923,209.671,304.915z"/>
		<path style="fill:#111C2A;" d="M104.406,342.555l9.871-17.201c-1.579,1.461-3.262,0.672-4.899-0.735l-10.247-8.591l-2.735,2.495
			l-19.319,26.319c-1.533,2.087-1.075,5.017,1.039,6.532l15.745,11.445c2.096,1.506,5.008,1.052,6.541-1.034l8.564-11.808
			l-2.712-1.424C104.097,347.418,103.253,344.696,104.406,342.555z"/>
		<path style="fill:#111C2A;" d="M135.959,340.668c-2.209-0.835-3.334-3.248-2.536-5.444l9.558-26.237l-7.594-4.037l-17.696,21.093
			c-0.118,0.145-0.29,0.2-0.394,0.317l-7.698,14.452c-1.161,2.186-0.327,4.872,1.855,6.033l2.703,1.415l13.663,7.285
			c2.168,1.148,4.867,0.341,6.019-1.85l4.4-8.283l1.751-3.302L135.959,340.668z"/>
		<path style="fill:#111C2A;" d="M173.264,301.503l-16.607-6.06c-2.195-0.789-4.613,0.336-5.421,2.54l-3.266,8.945l-9.562,26.237
			c-0.803,2.213,0.34,4.654,2.567,5.452l4.005,1.479l12.561,4.554c2.046,0.772,4.205-0.209,5.185-2.105
			c0.077-0.145,0.199-0.245,0.245-0.426l9.44-25.856l3.402-9.344C176.607,304.733,175.455,302.311,173.264,301.503z"/>
		<path style="fill:#111C2A;" d="M61.471,300.868l15.16-12.792c-1.982,0.834-3.298-0.481-4.355-2.359l-6.691-11.585l-3.421,1.415
			l-27.157,18.117c-2.155,1.442-2.727,4.345-1.256,6.496L44.629,316.3c1.456,2.132,4.35,2.695,6.504,1.261l12.084-8.165l-2.06-2.268
			C59.521,305.322,59.657,302.483,61.471,300.868z"/>
		<path style="fill:#111C2A;" d="M91.768,309.877c-1.792-1.533-2.023-4.182-0.522-5.979l17.954-21.383l-5.752-6.396l-23.842,13.772
			c-0.163,0.1-0.345,0.091-0.481,0.172l-12.175,10.941c-1.842,1.651-1.978,4.472-0.322,6.305l2.055,2.259l10.347,11.513
			c1.647,1.824,4.459,1.987,6.292,0.318l6.967-6.278l2.772-2.504L91.768,309.877z"/>
		<path style="fill:#111C2A;" d="M140.218,285.835l-13.531-11.367c-1.797-1.497-4.45-1.261-5.965,0.526l-6.128,7.294l-17.959,21.383
			c-1.511,1.805-1.275,4.491,0.549,6.005l3.257,2.758l10.247,8.573c1.656,1.424,4.019,1.243,5.589-0.2
			c0.122-0.118,0.272-0.172,0.376-0.317l17.718-21.075l6.391-7.621C142.255,290.018,142.001,287.342,140.218,285.835z"/>
		<path style="fill:#111C2A;" d="M35.384,247.007l18.621-6.831c-2.146,0.099-2.935-1.588-3.284-3.711l-2.327-13.173l-3.697,0.154
			l-31.716,7.739c-2.518,0.617-4.046,3.157-3.402,5.679l4.699,18.888c0.644,2.495,3.166,4.019,5.684,3.411l14.148-3.538l-1.161-2.84
			C32.027,250.527,33.125,247.904,35.384,247.007z"/>
		<path style="fill:#111C2A;" d="M60.773,265.84c-1.161-2.059-0.467-4.626,1.556-5.797l24.186-13.962l-3.22-7.975l-27.112,4.79
			c-0.191,0.036-0.354-0.036-0.513-0.009l-15.183,6.124c-2.295,0.925-3.388,3.52-2.458,5.816l1.157,2.821l5.788,14.361
			c0.921,2.268,3.506,3.393,5.802,2.449l8.696-3.52l3.461-1.397L60.773,265.84z"/>
		<path style="fill:#111C2A;" d="M114.526,259.816l-8.827-15.314c-1.179-2.014-3.751-2.703-5.788-1.542l-8.251,4.763l-24.192,13.944
			c-2.036,1.179-2.735,3.792-1.537,5.834l2.118,3.701l6.695,11.558c1.071,1.914,3.352,2.55,5.321,1.724
			c0.154-0.064,0.313-0.064,0.463-0.163l23.86-13.745l8.609-4.972C115.006,264.443,115.682,261.839,114.526,259.816z"/>
		<path style="fill:#111C2A;" d="M29.292,187.465l19.836-0.046c-2.055-0.635-2.218-2.495-1.819-4.609l2.318-13.173l-3.525-1.116
			l-32.451-3.575c-2.577-0.29-4.881,1.579-5.139,4.164l-2.046,19.36c-0.249,2.567,1.602,4.854,4.178,5.144l14.502,1.515
			l-0.118-3.067C24.933,189.634,26.861,187.547,29.292,187.465z"/>
		<path style="fill:#111C2A;" d="M46.711,213.847c-0.39-2.322,1.143-4.5,3.443-4.908l27.502-4.844l-0.3-8.601l-27.116-4.772
			c-0.191-0.027-0.318-0.154-0.477-0.182l-16.361,0.562c-2.473,0.082-4.387,2.15-4.3,4.618l0.122,3.048l0.531,15.477
			c0.086,2.45,2.132,4.382,4.609,4.291l9.376-0.336l3.734-0.136L46.711,213.847z"/>
		<path style="fill:#111C2A;" d="M99.28,226.576l-3.057-17.409c-0.418-2.296-2.599-3.828-4.913-3.429l-9.381,1.651l-27.502,4.835
			c-2.318,0.408-3.865,2.622-3.438,4.953l0.721,4.209l2.341,13.146c0.353,2.159,2.277,3.547,4.409,3.438
			c0.168,0,0.317,0.046,0.494,0l27.122-4.754l9.789-1.724C98.15,231.084,99.674,228.88,99.28,226.576z"/>
		<path style="fill:#111C2A;" d="M43.93,129.439l18.657,6.741c-1.71-1.307-1.23-3.103-0.132-4.953l6.682-11.586l-2.93-2.259
			L36.935,102.93c-2.322-1.152-5.126-0.19-6.255,2.159l-8.541,17.482c-1.112,2.331-0.154,5.117,2.164,6.269l13.109,6.387
			l0.939-2.921C39.094,129.984,41.621,128.677,43.93,129.439z"/>
		<path style="fill:#111C2A;" d="M51.279,160.185c0.426-2.314,2.613-3.838,4.913-3.439l27.502,4.854l2.658-8.174l-23.851-13.763
			c-0.168-0.091-0.245-0.254-0.386-0.336l-15.563-5.071c-2.354-0.762-4.858,0.526-5.625,2.876l-0.925,2.903l-4.795,14.724
			c-0.758,2.331,0.504,4.854,2.862,5.606l8.927,2.894l3.552,1.152L51.279,160.185z"/>
		<path style="fill:#111C2A;" d="M96.322,190.132l3.08-17.409c0.395-2.304-1.134-4.482-3.443-4.899l-9.381-1.66l-27.493-4.863
			c-2.322-0.408-4.532,1.143-4.926,3.474l-0.762,4.2l-2.3,13.164c-0.404,2.15,0.93,4.101,2.967,4.736
			c0.164,0.055,0.286,0.154,0.467,0.173l27.112,4.808l9.789,1.724C93.718,193.979,95.905,192.428,96.322,190.132z"/>
		<path style="fill:#111C2A;" d="M77.533,79.923l15.228,12.71c-1.161-1.814-0.096-3.339,1.569-4.699l10.238-8.601l-1.977-3.121
			L80.028,52.615c-1.787-1.878-4.754-1.932-6.618-0.109L59.403,66.015c-1.837,1.806-1.891,4.745-0.109,6.632l10.133,10.479
			l1.883-2.422C72.803,78.771,75.624,78.417,77.533,79.923z"/>
		<path style="fill:#111C2A;" d="M73.923,111.322c1.193-2.032,3.769-2.713,5.793-1.551l24.182,13.971l5.298-6.777L91.487,95.881
			c-0.127-0.145-0.14-0.327-0.249-0.454L78.35,85.339c-1.95-1.525-4.745-1.171-6.269,0.78l-1.864,2.414l-9.539,12.193
			c-1.511,1.932-1.188,4.736,0.771,6.251l7.399,5.77l2.944,2.304L73.923,111.322z"/>
		<path style="fill:#111C2A;" d="M106.007,154.869l8.85-15.305c1.157-2.032,0.467-4.599-1.56-5.779l-8.247-4.772l-24.173-13.971
			c-2.041-1.179-4.65-0.481-5.82,1.578l-2.15,3.693l-6.663,11.576c-1.112,1.887-0.531,4.173,1.17,5.461
			c0.131,0.109,0.213,0.245,0.381,0.327l23.832,13.79l8.605,4.972C102.246,157.599,104.832,156.883,106.007,154.869z"/>
		<path style="fill:#111C2A;" d="M126.048,44.877l9.961,17.156c-0.472-2.096,1.053-3.166,3.085-3.883l12.56-4.573l-0.79-3.611
			l-13.132-29.893c-1.039-2.377-3.81-3.438-6.183-2.368l-17.781,7.902c-2.345,1.071-3.402,3.82-2.372,6.196l5.938,13.309
			l2.599-1.633C121.992,42.183,124.768,42.808,126.048,44.877z"/>
		<path style="fill:#111C2A;" d="M111.913,73.155c1.814-1.506,4.473-1.27,5.974,0.517l17.945,21.401l7.299-4.554L133.7,64.645
			c-0.068-0.182-0.018-0.354-0.081-0.508l-8.66-13.889c-1.311-2.096-4.056-2.722-6.156-1.407l-2.577,1.633l-13.136,8.192
			c-2.078,1.297-2.735,4.037-1.411,6.133l4.98,7.956l1.978,3.166L111.913,73.155z"/>
		<path style="fill:#111C2A;" d="M127.168,125.039l13.549-11.349c1.783-1.515,2.014-4.164,0.512-5.97l-6.119-7.294l-17.931-21.401
			c-1.515-1.806-4.21-2.041-6.011-0.508l-3.284,2.731L97.66,89.857c-1.687,1.388-1.923,3.738-0.766,5.525
			c0.086,0.154,0.118,0.308,0.249,0.435l17.677,21.111l6.387,7.611C122.704,126.318,125.376,126.536,127.168,125.039z"/>
		<path style="fill:#111C2A;" d="M183.62,28.547l3.493,19.523c0.276-2.132,2.073-2.622,4.227-2.595h13.368l0.495-3.665
			l-2.119-32.579c-0.163-2.595-2.404-4.536-4.998-4.345l-19.415,1.352c-2.568,0.199-4.5,2.422-4.346,5.008l1.025,14.534l3.003-0.644
			C180.73,24.619,183.126,26.161,183.62,28.547z"/>
		<path style="fill:#111C2A;" d="M160.667,50.275c2.218-0.789,4.636,0.345,5.434,2.54l9.544,26.237l8.414-1.779l-0.009-27.534
			c-0.005-0.2,0.104-0.345,0.095-0.508l-3.384-16.012c-0.517-2.422-2.88-3.946-5.303-3.429l-2.98,0.653l-15.146,3.203
			c-2.395,0.508-3.955,2.858-3.425,5.28l1.96,9.181l0.776,3.657L160.667,50.275z"/>
		<path style="fill:#111C2A;" d="M157.256,104.255l16.616-6.033c2.191-0.817,3.316-3.23,2.522-5.434l-3.257-8.945l-9.526-26.246
			c-0.807-2.213-3.262-3.356-5.48-2.531l-4.019,1.442l-12.552,4.591c-2.059,0.726-3.084,2.858-2.608,4.935
			c0.027,0.172,0.005,0.327,0.082,0.49l9.394,25.883l3.398,9.344C152.625,103.928,155.061,105.044,157.256,104.255z"/>
	</g>
</g>
</svg>
