<?xml version="1.0" encoding="utf-8"?>
<!-- Generator: Adobe Illustrator 19.1.0, SVG Export Plug-In . SVG Version: 6.00 Build 0)  -->
<svg version="1.1" xmlns="http://www.w3.org/2000/svg" xmlns:xlink="http://www.w3.org/1999/xlink" x="0px" y="0px"
	 viewBox="0 0 400 400" style="enable-background:new 0 0 400 400;" xml:space="preserve">
<style type="text/css">
	.st0{display:none;}
	.st1{display:inline;}
	.st2{fill:url(#SVGID_1_);}
	.st3{fill:url(#SVGID_2_);}
	.st4{fill:url(#SVGID_3_);}
	.st5{fill:url(#SVGID_4_);}
	.st6{fill:url(#SVGID_5_);}
	.st7{fill:url(#SVGID_6_);}
	.st8{fill:url(#SVGID_7_);}
	.st9{fill:url(#SVGID_8_);}
	.st10{fill:url(#SVGID_9_);}
	.st11{fill:url(#SVGID_10_);}
	.st12{fill:url(#SVGID_11_);}
	.st13{fill:url(#SVGID_12_);}
	.st14{fill:url(#SVGID_13_);}
	.st15{fill:url(#SVGID_14_);}
	.st16{fill:url(#SVGID_15_);}
	.st17{fill:url(#SVGID_16_);}
	.st18{fill:url(#SVGID_17_);}
	.st19{fill:url(#SVGID_18_);}
	.st20{fill:url(#SVGID_19_);}
	.st21{fill:url(#SVGID_20_);}
	.st22{fill:url(#SVGID_21_);}
	.st23{fill:url(#SVGID_22_);}
	.st24{fill:url(#SVGID_23_);}
	.st25{fill:url(#SVGID_24_);}
	.st26{fill:url(#SVGID_25_);}
	.st27{fill:url(#SVGID_26_);}
	.st28{fill:url(#SVGID_27_);}
	.st29{fill:url(#SVGID_28_);}
	.st30{fill:url(#SVGID_29_);}
	.st31{fill:url(#SVGID_30_);}
	.st32{fill:url(#SVGID_31_);}
	.st33{fill:url(#SVGID_32_);}
	.st34{fill:url(#SVGID_33_);}
	.st35{fill:url(#SVGID_34_);}
	.st36{fill:url(#SVGID_35_);}
	.st37{fill:url(#SVGID_36_);}
	.st38{fill:url(#SVGID_37_);}
	.st39{fill:url(#SVGID_38_);}
	.st40{fill:url(#SVGID_39_);}
	.st41{fill:url(#SVGID_40_);}
	.st42{fill:url(#SVGID_41_);}
	.st43{fill:url(#SVGID_42_);}
	.st44{fill:url(#SVGID_43_);}
	.st45{fill:url(#SVGID_44_);}
	.st46{fill:url(#SVGID_45_);}
	.st47{fill:url(#SVGID_46_);}
	.st48{fill:url(#SVGID_47_);}
	.st49{fill:url(#SVGID_48_);}
	.st50{fill:url(#SVGID_49_);}
	.st51{fill:url(#SVGID_50_);}
	.st52{fill:url(#SVGID_51_);}
	.st53{fill:url(#SVGID_52_);}
	.st54{fill:url(#SVGID_53_);}
	.st55{fill:url(#SVGID_54_);}
	.st56{fill:#32373C;}
	.st57{font-family:'GothamLight';}
	.st58{font-size:46.2286px;}
	.st59{letter-spacing:-3;}
	.st60{letter-spacing:-5;}
	.st61{letter-spacing:-6;}
	.st62{letter-spacing:-4;}
	.st63{fill:#575B64;}
	.st64{font-family:'GothamMedium';}
	.st65{letter-spacing:-2;}
	.st66{fill:#191E24;}
	.st67{fill:#373C42;}
	.st68{fill:#464B51;}
	.st69{display:inline;fill:#585B63;}
	.st70{display:inline;fill:#191E24;}
	.st71{display:inline;fill:#727A82;}
	.st72{display:inline;fill:#575B64;}
	.st73{display:inline;fill:#32373C;}
	.st74{display:inline;fill:#768089;}
</style>
<g id="レイヤー_1" class="st0">
	<g class="st1">
		
			<linearGradient id="SVGID_1_" gradientUnits="userSpaceOnUse" x1="566.6223" y1="676.0336" x2="573.4208" y2="650.6611" gradientTransform="matrix(1 0 0 1 -348.6973 -561.2667)">
			<stop  offset="0" style="stop-color:#2A2C32"/>
			<stop  offset="0.2029" style="stop-color:#32353B"/>
			<stop  offset="0.5337" style="stop-color:#474C53"/>
			<stop  offset="0.9491" style="stop-color:#69737B"/>
			<stop  offset="1" style="stop-color:#6E7880"/>
		</linearGradient>
		<path class="st2" d="M218.4,102l-1.5,8.4c0.4-0.8,1.2-0.8,2.1-0.4l5.4,2l0.7-1.4l3.9-13.5c0.3-1.1-0.3-2.2-1.4-2.5l-8.1-2.3
			c-1.1-0.3-2.2,0.3-2.5,1.4l-1.7,6l1.3,0.2C217.9,100,218.6,100.9,218.4,102z"/>
		
			<linearGradient id="SVGID_2_" gradientUnits="userSpaceOnUse" x1="555.5906" y1="686.3979" x2="560.6161" y2="657.8962" gradientTransform="matrix(1 0 0 1 -348.6963 -561.2656)">
			<stop  offset="0" style="stop-color:#2A2C32"/>
			<stop  offset="1" style="stop-color:#6E7880"/>
		</linearGradient>
		<path class="st3" d="M206,107.4c1,0,1.8,0.8,1.8,1.8v12l3.7,0.5l4.1-11.1c0-0.1,0.1-0.1,0.1-0.2l1-7c0.1-1.1-0.6-2-1.6-2.2
			l-1.3-0.2l-6.6-0.9c-1-0.1-2,0.6-2.2,1.6l-0.6,4l-0.2,1.6L206,107.4z"/>
		
			<linearGradient id="SVGID_3_" gradientUnits="userSpaceOnUse" x1="549.1285" y1="693.9833" x2="549.1285" y2="666.1943" gradientTransform="matrix(1 0 0 1 -348.6973 -561.2667)">
			<stop  offset="0" style="stop-color:#2A2C32"/>
			<stop  offset="0.2501" style="stop-color:#43484F"/>
			<stop  offset="0.5422" style="stop-color:#5B626A"/>
			<stop  offset="0.8017" style="stop-color:#69727A"/>
			<stop  offset="1" style="stop-color:#6E7880"/>
		</linearGradient>
		<path class="st4" d="M196.6,128.7l7.6,0c1,0,1.8-0.8,1.8-1.8v-4.1l0-12c0-1-0.8-1.8-1.8-1.8l-1.8,0l-5.8,0c-0.9,0-1.7,0.7-1.8,1.6
			c0,0.1,0,0.1,0,0.2l0,11.9v4.3C194.8,127.9,195.6,128.7,196.6,128.7z"/>
		
			<linearGradient id="SVGID_4_" gradientUnits="userSpaceOnUse" x1="556.5842" y1="711.1752" x2="563.3827" y2="685.8027" gradientTransform="matrix(0.9397 -0.342 0.342 0.9397 -569.5698 -365.1929)">
			<stop  offset="0" style="stop-color:#2A2C32"/>
			<stop  offset="0.2029" style="stop-color:#32353B"/>
			<stop  offset="0.5337" style="stop-color:#474C53"/>
			<stop  offset="0.9491" style="stop-color:#69737B"/>
			<stop  offset="1" style="stop-color:#6E7880"/>
		</linearGradient>
		<path class="st5" d="M192.7,100.1l1.5,8.4c0.1-0.9,0.9-1.1,1.8-1.1l5.8,0l0.2-1.6l-0.9-14c-0.1-1.1-1-2-2.2-1.9l-8.4,0.6
			c-1.1,0.1-1.9,1-1.9,2.2l0.4,6.3l1.3-0.3C191.5,98.4,192.5,99.1,192.7,100.1z"/>
		
			<linearGradient id="SVGID_5_" gradientUnits="userSpaceOnUse" x1="545.5952" y1="721.5237" x2="550.6208" y2="693.022" gradientTransform="matrix(0.9397 -0.342 0.342 0.9397 -569.5686 -365.1921)">
			<stop  offset="0" style="stop-color:#2A2C32"/>
			<stop  offset="1" style="stop-color:#6E7880"/>
		</linearGradient>
		<path class="st6" d="M182.9,109.4c1-0.3,2,0.1,2.3,1.1l4.1,11.3l3.6-0.8l0-11.9c0-0.1,0-0.1,0-0.2l-1.5-6.9
			c-0.2-1-1.2-1.7-2.3-1.5l-1.3,0.3l-6.5,1.4c-1,0.2-1.7,1.2-1.5,2.3l0.8,4l0.3,1.6L182.9,109.4z"/>
		
			<linearGradient id="SVGID_6_" gradientUnits="userSpaceOnUse" x1="539.2065" y1="729.0563" x2="539.2065" y2="701.2673" gradientTransform="matrix(0.9397 -0.342 0.342 0.9397 -569.5698 -365.1929)">
			<stop  offset="0" style="stop-color:#2A2C32"/>
			<stop  offset="0.2501" style="stop-color:#43484F"/>
			<stop  offset="0.5422" style="stop-color:#5B626A"/>
			<stop  offset="0.8017" style="stop-color:#69727A"/>
			<stop  offset="1" style="stop-color:#6E7880"/>
		</linearGradient>
		<path class="st7" d="M181.4,132.7l7.2-2.6c0.9-0.3,1.4-1.4,1.1-2.3l-1.4-3.9l-4.1-11.3c-0.3-1-1.4-1.4-2.4-1.1l-1.7,0.6l-5.4,2
			c-0.9,0.3-1.3,1.2-1.1,2.1c0,0.1,0,0.1,0,0.2l4,11.1l1.5,4C179.4,132.5,180.4,133,181.4,132.7z"/>
		
			<linearGradient id="SVGID_7_" gradientUnits="userSpaceOnUse" x1="535.26" y1="739.7343" x2="542.0585" y2="714.3618" gradientTransform="matrix(0.766 -0.6428 0.6428 0.766 -710.1942 -106.3164)">
			<stop  offset="0" style="stop-color:#2A2C32"/>
			<stop  offset="0.2029" style="stop-color:#32353B"/>
			<stop  offset="0.5337" style="stop-color:#474C53"/>
			<stop  offset="0.9491" style="stop-color:#69737B"/>
			<stop  offset="1" style="stop-color:#6E7880"/>
		</linearGradient>
		<path class="st8" d="M168,107.1l4.3,7.4c-0.2-0.9,0.5-1.4,1.3-1.7l5.4-2l-0.3-1.6L173,96.4c-0.4-1-1.6-1.5-2.7-1l-7.7,3.4
			c-1,0.5-1.5,1.6-1,2.7l2.6,5.7l1.1-0.7C166.2,106,167.4,106.2,168,107.1z"/>
		
			<linearGradient id="SVGID_8_" gradientUnits="userSpaceOnUse" x1="524.1337" y1="750.0753" x2="529.1594" y2="721.5735" gradientTransform="matrix(0.766 -0.6428 0.6428 0.766 -710.193 -106.3164)">
			<stop  offset="0" style="stop-color:#2A2C32"/>
			<stop  offset="1" style="stop-color:#6E7880"/>
		</linearGradient>
		<path class="st9" d="M161.9,119.3c0.8-0.6,1.9-0.5,2.6,0.2l7.7,9.2l3.1-2l-4.1-11.1c0-0.1,0-0.1,0-0.2l-3.7-6
			c-0.6-0.9-1.8-1.2-2.6-0.6l-1.1,0.7l-5.7,3.5c-0.9,0.6-1.2,1.7-0.6,2.6l2.1,3.4l0.8,1.4L161.9,119.3z"/>
		
			<linearGradient id="SVGID_9_" gradientUnits="userSpaceOnUse" x1="517.4763" y1="757.6655" x2="517.4763" y2="729.8765" gradientTransform="matrix(0.766 -0.6428 0.6428 0.766 -710.1942 -106.3164)">
			<stop  offset="0" style="stop-color:#2A2C32"/>
			<stop  offset="0.2501" style="stop-color:#43484F"/>
			<stop  offset="0.5422" style="stop-color:#5B626A"/>
			<stop  offset="0.8017" style="stop-color:#69727A"/>
			<stop  offset="1" style="stop-color:#6E7880"/>
		</linearGradient>
		<path class="st10" d="M168.4,141.6l5.8-4.9c0.8-0.6,0.9-1.8,0.2-2.6l-2.6-3.1l-7.7-9.2c-0.7-0.8-1.8-0.9-2.6-0.2l-1.4,1.2
			l-4.4,3.7c-0.7,0.6-0.8,1.6-0.3,2.4c0,0.1,0.1,0.1,0.1,0.2l7.6,9.1l2.7,3.3C166.5,142.2,167.7,142.3,168.4,141.6z"/>
		
			<linearGradient id="SVGID_10_" gradientUnits="userSpaceOnUse" x1="505.2081" y1="760.5685" x2="512.0067" y2="735.196" gradientTransform="matrix(0.5 -0.866 0.866 0.5 -753.3685 186.2823)">
			<stop  offset="0" style="stop-color:#2A2C32"/>
			<stop  offset="0.2029" style="stop-color:#32353B"/>
			<stop  offset="0.5337" style="stop-color:#474C53"/>
			<stop  offset="0.9491" style="stop-color:#69737B"/>
			<stop  offset="1" style="stop-color:#6E7880"/>
		</linearGradient>
		<path class="st11" d="M147.1,122.2l6.6,5.5c-0.5-0.8,0-1.4,0.7-2l4.4-3.7l-0.9-1.3l-9.7-10.2c-0.8-0.8-2-0.8-2.8,0l-6,5.8
			c-0.8,0.8-0.8,2,0,2.9l4.4,4.5l0.8-1C145,121.7,146.2,121.6,147.1,122.2z"/>
		
			<linearGradient id="SVGID_11_" gradientUnits="userSpaceOnUse" x1="494.1855" y1="770.8791" x2="499.2111" y2="742.3774" gradientTransform="matrix(0.5 -0.866 0.866 0.5 -753.3675 186.2813)">
			<stop  offset="0" style="stop-color:#2A2C32"/>
			<stop  offset="1" style="stop-color:#6E7880"/>
		</linearGradient>
		<path class="st12" d="M145.5,135.7c0.5-0.9,1.6-1.2,2.5-0.7l10.4,6l2.3-2.9l-7.6-9.1c-0.1-0.1-0.1-0.1-0.1-0.2l-5.5-4.3
			c-0.8-0.7-2-0.5-2.7,0.3l-0.8,1l-4.1,5.3c-0.6,0.8-0.5,2,0.3,2.7l3.2,2.5l1.3,1L145.5,135.7z"/>
		
			<linearGradient id="SVGID_12_" gradientUnits="userSpaceOnUse" x1="487.7121" y1="778.3588" x2="487.7121" y2="750.5698" gradientTransform="matrix(0.5 -0.866 0.866 0.5 -753.3685 186.2823)">
			<stop  offset="0" style="stop-color:#2A2C32"/>
			<stop  offset="0.2501" style="stop-color:#43484F"/>
			<stop  offset="0.5422" style="stop-color:#5B626A"/>
			<stop  offset="0.8017" style="stop-color:#69727A"/>
			<stop  offset="1" style="stop-color:#6E7880"/>
		</linearGradient>
		<path class="st13" d="M159.3,154.5l3.8-6.6c0.5-0.9,0.2-2-0.7-2.5l-3.6-2.1l-10.4-6c-0.9-0.5-2-0.2-2.5,0.7l-0.9,1.6l-2.9,5
			c-0.5,0.8-0.2,1.8,0.5,2.4c0.1,0,0.1,0.1,0.2,0.1l10.3,5.9l3.7,2.1C157.7,155.7,158.8,155.4,159.3,154.5z"/>
		
			<linearGradient id="SVGID_13_" gradientUnits="userSpaceOnUse" x1="469.6665" y1="768.5968" x2="476.4651" y2="743.2243" gradientTransform="matrix(0.1736 -0.9848 0.9848 0.1736 -694.3829 474.8756)">
			<stop  offset="0" style="stop-color:#2A2C32"/>
			<stop  offset="0.2029" style="stop-color:#32353B"/>
			<stop  offset="0.5337" style="stop-color:#474C53"/>
			<stop  offset="0.9491" style="stop-color:#69737B"/>
			<stop  offset="1" style="stop-color:#6E7880"/>
		</linearGradient>
		<path class="st14" d="M132.6,143.5l8,2.9c-0.7-0.6-0.5-1.3-0.1-2.1l2.9-5l-1.3-1l-12.6-6.2c-1-0.5-2.2-0.1-2.7,0.9l-3.7,7.5
			c-0.5,1-0.1,2.2,0.9,2.7l5.6,2.8l0.4-1.3C130.5,143.8,131.6,143.2,132.6,143.5z"/>
		
			<linearGradient id="SVGID_14_" gradientUnits="userSpaceOnUse" x1="458.5323" y1="778.9634" x2="463.5579" y2="750.4617" gradientTransform="matrix(0.1736 -0.9848 0.9848 0.1736 -694.3823 474.8746)">
			<stop  offset="0" style="stop-color:#2A2C32"/>
			<stop  offset="1" style="stop-color:#6E7880"/>
		</linearGradient>
		<path class="st15" d="M135.8,156.8c0.2-1,1.1-1.6,2.1-1.5l11.8,2.1l1.1-3.5l-10.3-5.9c-0.1,0-0.1-0.1-0.2-0.1l-6.7-2.2
			c-1-0.3-2.1,0.2-2.4,1.2l-0.4,1.3l-2.1,6.3c-0.3,1,0.2,2.1,1.2,2.4l3.8,1.2l1.5,0.5L135.8,156.8z"/>
		
			<linearGradient id="SVGID_15_" gradientUnits="userSpaceOnUse" x1="451.8719" y1="786.6082" x2="451.8719" y2="758.8192" gradientTransform="matrix(0.1736 -0.9848 0.9848 0.1736 -694.3829 474.8756)">
			<stop  offset="0" style="stop-color:#2A2C32"/>
			<stop  offset="0.2501" style="stop-color:#43484F"/>
			<stop  offset="0.5422" style="stop-color:#5B626A"/>
			<stop  offset="0.8017" style="stop-color:#69727A"/>
			<stop  offset="1" style="stop-color:#6E7880"/>
		</linearGradient>
		<path class="st16" d="M155.1,169.7l1.3-7.5c0.2-1-0.5-1.9-1.5-2.1l-4-0.7l-11.8-2.1c-1-0.2-2,0.5-2.1,1.5l-0.3,1.8l-1,5.7
			c-0.2,0.9,0.4,1.8,1.3,2c0.1,0,0.1,0.1,0.2,0.1l11.7,2.1l4.2,0.7C154,171.3,155,170.7,155.1,169.7z"/>
		
			<linearGradient id="SVGID_16_" gradientUnits="userSpaceOnUse" x1="433.8564" y1="765.7755" x2="440.655" y2="740.403" gradientTransform="matrix(-0.1736 -0.9848 0.9848 -0.1736 -539.0709 727.0713)">
			<stop  offset="0" style="stop-color:#2A2C32"/>
			<stop  offset="0.2029" style="stop-color:#32353B"/>
			<stop  offset="0.5337" style="stop-color:#474C53"/>
			<stop  offset="0.9491" style="stop-color:#69737B"/>
			<stop  offset="1" style="stop-color:#6E7880"/>
		</linearGradient>
		<path class="st17" d="M126.3,168.5l8.5,0c-0.9-0.3-1-1.1-0.8-2l1-5.7l-1.5-0.5l-14-1.5c-1.1-0.1-2.1,0.7-2.2,1.8l-0.9,8.3
			c-0.1,1.1,0.7,2.1,1.8,2.2l6.2,0.7l0-1.3C124.4,169.4,125.2,168.6,126.3,168.5z"/>
		
			<linearGradient id="SVGID_17_" gradientUnits="userSpaceOnUse" x1="422.906" y1="776.0735" x2="427.9316" y2="747.5718" gradientTransform="matrix(-0.1736 -0.9848 0.9848 -0.1736 -539.0706 727.0713)">
			<stop  offset="0" style="stop-color:#2A2C32"/>
			<stop  offset="1" style="stop-color:#6E7880"/>
		</linearGradient>
		<path class="st18" d="M133.8,179.9c-0.2-1,0.5-1.9,1.5-2.1l11.8-2.1L147,172l-11.7-2.1c-0.1,0-0.1-0.1-0.2-0.1l-7,0.2
			c-1.1,0-1.9,0.9-1.9,2l0,1.3l0.2,6.7c0,1.1,0.9,1.9,2,1.8l4-0.1l1.6-0.1L133.8,179.9z"/>
		
			<linearGradient id="SVGID_18_" gradientUnits="userSpaceOnUse" x1="416.5602" y1="783.4912" x2="416.5602" y2="755.7022" gradientTransform="matrix(-0.1736 -0.9848 0.9848 -0.1736 -539.0709 727.0713)">
			<stop  offset="0" style="stop-color:#2A2C32"/>
			<stop  offset="0.2501" style="stop-color:#43484F"/>
			<stop  offset="0.5422" style="stop-color:#5B626A"/>
			<stop  offset="0.8017" style="stop-color:#69727A"/>
			<stop  offset="1" style="stop-color:#6E7880"/>
		</linearGradient>
		<path class="st19" d="M156.4,185.4l-1.3-7.5c-0.2-1-1.1-1.7-2.1-1.5l-4,0.7l-11.8,2.1c-1,0.2-1.7,1.1-1.5,2.1l0.3,1.8l1,5.7
			c0.2,0.9,1,1.5,1.9,1.5c0.1,0,0.1,0,0.2,0l11.7-2.1l4.2-0.7C155.9,187.3,156.6,186.4,156.4,185.4z"/>
		
			<linearGradient id="SVGID_19_" gradientUnits="userSpaceOnUse" x1="401.1197" y1="749.0552" x2="407.9182" y2="723.6826" gradientTransform="matrix(-0.5 -0.866 0.866 -0.5 -308.3819 910.2335)">
			<stop  offset="0" style="stop-color:#2A2C32"/>
			<stop  offset="0.2029" style="stop-color:#32353B"/>
			<stop  offset="0.5337" style="stop-color:#474C53"/>
			<stop  offset="0.9491" style="stop-color:#69737B"/>
			<stop  offset="1" style="stop-color:#6E7880"/>
		</linearGradient>
		<path class="st20" d="M128.9,194.2l8-2.9c-0.9,0-1.3-0.7-1.4-1.6l-1-5.7l-1.6,0.1l-13.7,3.3c-1.1,0.3-1.7,1.4-1.5,2.4l2,8.1
			c0.3,1.1,1.4,1.7,2.4,1.5l6.1-1.5l-0.5-1.2C127.5,195.7,127.9,194.5,128.9,194.2z"/>
		
			<linearGradient id="SVGID_20_" gradientUnits="userSpaceOnUse" x1="390.0486" y1="759.3851" x2="395.0742" y2="730.8834" gradientTransform="matrix(-0.5 -0.866 0.866 -0.5 -308.3819 910.2335)">
			<stop  offset="0" style="stop-color:#2A2C32"/>
			<stop  offset="1" style="stop-color:#6E7880"/>
		</linearGradient>
		<path class="st21" d="M139.8,202.3c-0.5-0.9-0.2-2,0.7-2.5l10.4-6l-1.4-3.4l-11.7,2.1c-0.1,0-0.1,0-0.2,0l-6.5,2.6
			c-1,0.4-1.5,1.5-1.1,2.5l0.5,1.2l2.5,6.2c0.4,1,1.5,1.5,2.5,1.1l3.8-1.5l1.5-0.6L139.8,202.3z"/>
		
			<linearGradient id="SVGID_21_" gradientUnits="userSpaceOnUse" x1="383.4868" y1="766.9274" x2="383.4868" y2="739.1384" gradientTransform="matrix(-0.5 -0.866 0.866 -0.5 -308.3819 910.2335)">
			<stop  offset="0" style="stop-color:#2A2C32"/>
			<stop  offset="0.2501" style="stop-color:#43484F"/>
			<stop  offset="0.5422" style="stop-color:#5B626A"/>
			<stop  offset="0.8017" style="stop-color:#69727A"/>
			<stop  offset="1" style="stop-color:#6E7880"/>
		</linearGradient>
		<path class="st22" d="M163,199.7l-3.8-6.6c-0.5-0.9-1.6-1.2-2.5-0.7l-3.6,2.1l-10.4,6c-0.9,0.5-1.2,1.6-0.7,2.5l0.9,1.6l2.9,5
			c0.5,0.8,1.4,1.1,2.3,0.7c0.1,0,0.1,0,0.2-0.1l10.3-5.9l3.7-2.1C163.2,201.7,163.5,200.5,163,199.7z"/>
		
			<linearGradient id="SVGID_22_" gradientUnits="userSpaceOnUse" x1="376.1704" y1="723.4351" x2="382.9689" y2="698.0625" gradientTransform="matrix(-0.766 -0.6428 0.6428 -0.766 -27.7256 1003.5526)">
			<stop  offset="0" style="stop-color:#2A2C32"/>
			<stop  offset="0.2029" style="stop-color:#32353B"/>
			<stop  offset="0.5337" style="stop-color:#474C53"/>
			<stop  offset="0.9491" style="stop-color:#69737B"/>
			<stop  offset="1" style="stop-color:#6E7880"/>
		</linearGradient>
		<path class="st23" d="M140.1,217.3l6.5-5.5c-0.9,0.4-1.4-0.2-1.9-1l-2.9-5l-1.5,0.6l-11.7,7.8c-0.9,0.6-1.2,1.9-0.5,2.8l4.7,7
			c0.6,0.9,1.9,1.2,2.8,0.5l5.2-3.5l-0.9-1C139.3,219.3,139.4,218,140.1,217.3z"/>
		
			<linearGradient id="SVGID_23_" gradientUnits="userSpaceOnUse" x1="365.1971" y1="733.719" x2="370.2227" y2="705.2173" gradientTransform="matrix(-0.766 -0.6428 0.6428 -0.766 -27.7256 1003.5526)">
			<stop  offset="0" style="stop-color:#2A2C32"/>
			<stop  offset="1" style="stop-color:#6E7880"/>
		</linearGradient>
		<path class="st24" d="M153.2,221.2c-0.8-0.7-0.9-1.8-0.2-2.6l7.7-9.2l-2.5-2.7l-10.3,5.9c-0.1,0-0.1,0-0.2,0.1l-5.2,4.7
			c-0.8,0.7-0.9,1.9-0.1,2.7l0.9,1l4.5,5c0.7,0.8,1.9,0.9,2.7,0.1l3-2.7l1.2-1.1L153.2,221.2z"/>
		
			<linearGradient id="SVGID_24_" gradientUnits="userSpaceOnUse" x1="358.799" y1="741.1224" x2="358.799" y2="713.3334" gradientTransform="matrix(-0.766 -0.6428 0.6428 -0.766 -27.7256 1003.5526)">
			<stop  offset="0" style="stop-color:#2A2C32"/>
			<stop  offset="0.2501" style="stop-color:#43484F"/>
			<stop  offset="0.5422" style="stop-color:#5B626A"/>
			<stop  offset="0.8017" style="stop-color:#69727A"/>
			<stop  offset="1" style="stop-color:#6E7880"/>
		</linearGradient>
		<path class="st25" d="M174,210.9l-5.8-4.9c-0.8-0.6-1.9-0.5-2.6,0.2l-2.6,3.1l-7.7,9.2c-0.7,0.8-0.5,1.9,0.2,2.6l1.4,1.2l4.4,3.7
			c0.7,0.6,1.7,0.5,2.4-0.1c0,0,0.1-0.1,0.2-0.1l7.6-9.1l2.8-3.3C174.9,212.7,174.8,211.5,174,210.9z"/>
		
			<linearGradient id="SVGID_25_" gradientUnits="userSpaceOnUse" x1="360.9851" y1="689.5949" x2="367.7837" y2="664.2224" gradientTransform="matrix(-0.9397 -0.342 0.342 -0.9397 266.6123 995.2732)">
			<stop  offset="0" style="stop-color:#2A2C32"/>
			<stop  offset="0.2029" style="stop-color:#32353B"/>
			<stop  offset="0.5337" style="stop-color:#474C53"/>
			<stop  offset="0.9491" style="stop-color:#69737B"/>
			<stop  offset="1" style="stop-color:#6E7880"/>
		</linearGradient>
		<path class="st26" d="M158.6,235.3l4.2-7.4c-0.7,0.6-1.4,0.3-2.1-0.3l-4.4-3.7l-1.2,1.1l-8.3,11.3c-0.7,0.9-0.5,2.2,0.4,2.8
			l6.8,4.9c0.9,0.6,2.2,0.5,2.8-0.5l3.7-5.1l-1.2-0.6C158.5,237.4,158.1,236.2,158.6,235.3z"/>
		
			<linearGradient id="SVGID_26_" gradientUnits="userSpaceOnUse" x1="349.9137" y1="699.975" x2="354.9393" y2="671.4733" gradientTransform="matrix(-0.9397 -0.342 0.342 -0.9397 266.6123 995.2732)">
			<stop  offset="0" style="stop-color:#2A2C32"/>
			<stop  offset="1" style="stop-color:#6E7880"/>
		</linearGradient>
		<path class="st27" d="M172.2,234.5c-0.9-0.4-1.4-1.4-1.1-2.3l4.1-11.3l-3.3-1.7l-7.6,9.1c0,0.1-0.1,0.1-0.2,0.1l-3.3,6.2
			c-0.5,0.9-0.1,2.1,0.8,2.6l1.2,0.6l5.9,3.1c0.9,0.5,2.1,0.1,2.6-0.8l1.9-3.6l0.8-1.4L172.2,234.5z"/>
		
			<linearGradient id="SVGID_27_" gradientUnits="userSpaceOnUse" x1="343.3765" y1="707.6142" x2="343.3765" y2="679.8252" gradientTransform="matrix(-0.9397 -0.342 0.342 -0.9397 266.6123 995.2732)">
			<stop  offset="0" style="stop-color:#2A2C32"/>
			<stop  offset="0.2501" style="stop-color:#43484F"/>
			<stop  offset="0.5422" style="stop-color:#5B626A"/>
			<stop  offset="0.8017" style="stop-color:#69727A"/>
			<stop  offset="1" style="stop-color:#6E7880"/>
		</linearGradient>
		<path class="st28" d="M188.3,217.6l-7.1-2.6c-0.9-0.3-2,0.1-2.3,1.1l-1.4,3.9l-4.1,11.3c-0.3,1,0.1,2,1.1,2.4l1.7,0.6l5.4,2
			c0.9,0.3,1.8-0.1,2.2-0.9c0-0.1,0.1-0.1,0.1-0.2l4.1-11.1l1.5-4C189.7,219,189.2,218,188.3,217.6z"/>
		
			<linearGradient id="SVGID_28_" gradientUnits="userSpaceOnUse" x1="358.62" y1="653.6" x2="365.4185" y2="628.2274" gradientTransform="matrix(-1 0 0 -1 541.2734 886.6367)">
			<stop  offset="0" style="stop-color:#2A2C32"/>
			<stop  offset="0.2029" style="stop-color:#32353B"/>
			<stop  offset="0.5337" style="stop-color:#474C53"/>
			<stop  offset="0.9491" style="stop-color:#69737B"/>
			<stop  offset="1" style="stop-color:#6E7880"/>
		</linearGradient>
		<path class="st29" d="M182.1,245.8l1.5-8.4c-0.4,0.8-1.2,0.8-2.1,0.4l-5.4-2l-0.7,1.4l-3.9,13.5c-0.3,1.1,0.3,2.2,1.4,2.5l8.1,2.3
			c1.1,0.3,2.2-0.3,2.5-1.4l1.7-6l-1.3-0.2C182.7,247.9,182,246.9,182.1,245.8z"/>
		
			<linearGradient id="SVGID_29_" gradientUnits="userSpaceOnUse" x1="347.591" y1="663.9641" x2="352.6167" y2="635.4623" gradientTransform="matrix(-1 0 0 -1 541.2734 886.6367)">
			<stop  offset="0" style="stop-color:#2A2C32"/>
			<stop  offset="1" style="stop-color:#6E7880"/>
		</linearGradient>
		<path class="st30" d="M194.6,240.4c-1,0-1.8-0.8-1.8-1.8l0-12l-3.7-0.5l-4.1,11.1c0,0.1-0.1,0.1-0.1,0.2l-1,7
			c-0.1,1.1,0.6,2,1.6,2.2l1.3,0.2l6.6,0.9c1,0.1,2-0.6,2.2-1.6l0.6-4l0.2-1.6L194.6,240.4z"/>
		
			<linearGradient id="SVGID_30_" gradientUnits="userSpaceOnUse" x1="341.1273" y1="671.5505" x2="341.1273" y2="643.7615" gradientTransform="matrix(-1 0 0 -1 541.2734 886.6367)">
			<stop  offset="0" style="stop-color:#2A2C32"/>
			<stop  offset="0.2501" style="stop-color:#43484F"/>
			<stop  offset="0.5422" style="stop-color:#5B626A"/>
			<stop  offset="0.8017" style="stop-color:#69727A"/>
			<stop  offset="1" style="stop-color:#6E7880"/>
		</linearGradient>
		<path class="st31" d="M203.9,219.1l-7.6,0c-1,0-1.8,0.8-1.8,1.8l0,4.1l0,12c0,1,0.8,1.8,1.8,1.8l1.8,0l5.8,0
			c0.9,0,1.7-0.7,1.8-1.6c0-0.1,0-0.1,0-0.2l0-11.9l0-4.3C205.8,219.9,205,219.1,203.9,219.1z"/>
		
			<linearGradient id="SVGID_31_" gradientUnits="userSpaceOnUse" x1="368.7976" y1="618.9584" x2="375.5962" y2="593.5858" gradientTransform="matrix(-0.9397 0.342 -0.342 -0.9397 762.1462 690.5635)">
			<stop  offset="0" style="stop-color:#2A2C32"/>
			<stop  offset="0.2029" style="stop-color:#32353B"/>
			<stop  offset="0.5337" style="stop-color:#474C53"/>
			<stop  offset="0.9491" style="stop-color:#69737B"/>
			<stop  offset="1" style="stop-color:#6E7880"/>
		</linearGradient>
		<path class="st32" d="M207.8,247.7l-1.5-8.4c-0.1,0.9-0.9,1.1-1.8,1.1l-5.8,0l-0.2,1.6l0.9,14c0.1,1.1,1,2,2.2,1.9l8.4-0.6
			c1.1-0.1,1.9-1,1.9-2.2l-0.4-6.3l-1.3,0.3C209.1,249.4,208.1,248.7,207.8,247.7z"/>
		
			<linearGradient id="SVGID_32_" gradientUnits="userSpaceOnUse" x1="357.8113" y1="629.3064" x2="362.8369" y2="600.8047" gradientTransform="matrix(-0.9397 0.342 -0.342 -0.9397 762.1462 690.5635)">
			<stop  offset="0" style="stop-color:#2A2C32"/>
			<stop  offset="1" style="stop-color:#6E7880"/>
		</linearGradient>
		<path class="st33" d="M217.7,238.4c-1,0.3-2-0.1-2.3-1.1l-4.1-11.3l-3.6,0.8l0,11.9c0,0.1,0,0.1,0,0.2l1.5,6.9
			c0.2,1,1.2,1.7,2.3,1.5l1.3-0.3l6.5-1.4c1-0.2,1.7-1.2,1.5-2.3l-0.8-4l-0.3-1.6L217.7,238.4z"/>
		
			<linearGradient id="SVGID_33_" gradientUnits="userSpaceOnUse" x1="351.4214" y1="636.8398" x2="351.4214" y2="609.0508" gradientTransform="matrix(-0.9397 0.342 -0.342 -0.9397 762.1462 690.5635)">
			<stop  offset="0" style="stop-color:#2A2C32"/>
			<stop  offset="0.2501" style="stop-color:#43484F"/>
			<stop  offset="0.5422" style="stop-color:#5B626A"/>
			<stop  offset="0.8017" style="stop-color:#69727A"/>
			<stop  offset="1" style="stop-color:#6E7880"/>
		</linearGradient>
		<path class="st34" d="M219.2,215.1l-7.2,2.6c-0.9,0.3-1.4,1.4-1.1,2.3l1.4,3.9l4.1,11.3c0.3,1,1.4,1.4,2.4,1.1l1.7-0.6l5.4-2
			c0.9-0.3,1.3-1.2,1.1-2.1c0-0.1,0-0.1,0-0.2l-4-11.1l-1.5-4C221.2,215.3,220.1,214.8,219.2,215.1z"/>
		
			<linearGradient id="SVGID_34_" gradientUnits="userSpaceOnUse" x1="390.3433" y1="588.8401" x2="397.1418" y2="563.4675" gradientTransform="matrix(-0.766 0.6428 -0.6428 -0.766 902.7694 431.6875)">
			<stop  offset="0" style="stop-color:#2A2C32"/>
			<stop  offset="0.2029" style="stop-color:#32353B"/>
			<stop  offset="0.5337" style="stop-color:#474C53"/>
			<stop  offset="0.9491" style="stop-color:#69737B"/>
			<stop  offset="1" style="stop-color:#6E7880"/>
		</linearGradient>
		<path class="st35" d="M232.6,240.7l-4.3-7.4c0.2,0.9-0.5,1.4-1.3,1.7l-5.4,2l0.3,1.6l5.6,12.9c0.5,1,1.6,1.5,2.7,1l7.7-3.4
			c1-0.5,1.5-1.6,1-2.7l-2.5-5.7l-1.1,0.7C234.4,241.8,233.2,241.6,232.6,240.7z"/>
		
			<linearGradient id="SVGID_35_" gradientUnits="userSpaceOnUse" x1="379.2186" y1="599.181" x2="384.2443" y2="570.6793" gradientTransform="matrix(-0.766 0.6428 -0.6428 -0.766 902.7694 431.6875)">
			<stop  offset="0" style="stop-color:#2A2C32"/>
			<stop  offset="1" style="stop-color:#6E7880"/>
		</linearGradient>
		<path class="st36" d="M238.7,228.5c-0.8,0.6-1.9,0.5-2.6-0.2l-7.7-9.2l-3.1,2l4.1,11.1c0,0.1,0,0.1,0,0.2l3.7,6
			c0.6,0.9,1.8,1.2,2.6,0.6l1.1-0.7l5.7-3.5c0.9-0.6,1.2-1.7,0.6-2.6l-2.1-3.4l-0.8-1.4L238.7,228.5z"/>
		
			<linearGradient id="SVGID_36_" gradientUnits="userSpaceOnUse" x1="372.5609" y1="606.7721" x2="372.5609" y2="578.9831" gradientTransform="matrix(-0.766 0.6428 -0.6428 -0.766 902.7694 431.6875)">
			<stop  offset="0" style="stop-color:#2A2C32"/>
			<stop  offset="0.2501" style="stop-color:#43484F"/>
			<stop  offset="0.5422" style="stop-color:#5B626A"/>
			<stop  offset="0.8017" style="stop-color:#69727A"/>
			<stop  offset="1" style="stop-color:#6E7880"/>
		</linearGradient>
		<path class="st37" d="M232.1,206.2l-5.8,4.9c-0.8,0.6-0.9,1.8-0.2,2.6l2.6,3.1l7.7,9.2c0.7,0.8,1.8,0.9,2.6,0.2l1.4-1.2l4.4-3.7
			c0.7-0.6,0.8-1.6,0.3-2.4c0-0.1-0.1-0.1-0.1-0.2l-7.6-9.1l-2.7-3.3C234.1,205.6,232.9,205.5,232.1,206.2z"/>
		
			<linearGradient id="SVGID_37_" gradientUnits="userSpaceOnUse" x1="420.631" y1="569.215" x2="427.4296" y2="543.8425" gradientTransform="matrix(-0.5 0.866 -0.866 -0.5 945.9444 139.0898)">
			<stop  offset="0" style="stop-color:#2A2C32"/>
			<stop  offset="0.2029" style="stop-color:#32353B"/>
			<stop  offset="0.5337" style="stop-color:#474C53"/>
			<stop  offset="0.9491" style="stop-color:#69737B"/>
			<stop  offset="1" style="stop-color:#6E7880"/>
		</linearGradient>
		<path class="st38" d="M253.5,225.6l-6.6-5.5c0.5,0.8,0,1.4-0.7,2l-4.4,3.7l0.9,1.3l9.7,10.2c0.8,0.8,2,0.8,2.8,0l6-5.8
			c0.8-0.8,0.8-2,0-2.9l-4.4-4.5l-0.8,1C255.6,226.1,254.3,226.2,253.5,225.6z"/>
		
			<linearGradient id="SVGID_38_" gradientUnits="userSpaceOnUse" x1="409.6107" y1="579.5261" x2="414.6363" y2="551.0244" gradientTransform="matrix(-0.5 0.866 -0.866 -0.5 945.9444 139.0898)">
			<stop  offset="0" style="stop-color:#2A2C32"/>
			<stop  offset="1" style="stop-color:#6E7880"/>
		</linearGradient>
		<path class="st39" d="M255.1,212.1c-0.5,0.9-1.6,1.2-2.5,0.7l-10.4-6l-2.3,2.9l7.6,9.1c0.1,0.1,0.1,0.1,0.1,0.2l5.5,4.3
			c0.8,0.7,2,0.5,2.7-0.3l0.8-1l4.1-5.3c0.6-0.8,0.5-2-0.3-2.7l-3.2-2.5l-1.3-1L255.1,212.1z"/>
		
			<linearGradient id="SVGID_39_" gradientUnits="userSpaceOnUse" x1="403.1362" y1="587.0059" x2="403.1362" y2="559.2169" gradientTransform="matrix(-0.5 0.866 -0.866 -0.5 945.9444 139.0898)">
			<stop  offset="0" style="stop-color:#2A2C32"/>
			<stop  offset="0.2501" style="stop-color:#43484F"/>
			<stop  offset="0.5422" style="stop-color:#5B626A"/>
			<stop  offset="0.8017" style="stop-color:#69727A"/>
			<stop  offset="1" style="stop-color:#6E7880"/>
		</linearGradient>
		<path class="st40" d="M241.3,193.3l-3.8,6.6c-0.5,0.9-0.2,2,0.7,2.5l3.6,2.1l10.4,6c0.9,0.5,2,0.2,2.5-0.7l0.9-1.6l2.9-5
			c0.5-0.8,0.2-1.8-0.5-2.4c-0.1,0-0.1-0.1-0.2-0.1l-10.3-5.9l-3.7-2.1C242.9,192.2,241.8,192.5,241.3,193.3z"/>
		
			<linearGradient id="SVGID_40_" gradientUnits="userSpaceOnUse" x1="455.6505" y1="559.8568" x2="462.449" y2="534.4843" gradientTransform="matrix(-0.1736 0.9848 -0.9848 -0.1736 886.96 -149.5034)">
			<stop  offset="0" style="stop-color:#2A2C32"/>
			<stop  offset="0.2029" style="stop-color:#32353B"/>
			<stop  offset="0.5337" style="stop-color:#474C53"/>
			<stop  offset="0.9491" style="stop-color:#69737B"/>
			<stop  offset="1" style="stop-color:#6E7880"/>
		</linearGradient>
		<path class="st41" d="M268,204.3l-8-2.9c0.7,0.6,0.5,1.3,0.1,2.1l-2.9,5l1.3,1l12.6,6.2c1,0.5,2.2,0.1,2.7-0.9l3.7-7.5
			c0.5-1,0.1-2.2-0.9-2.7l-5.6-2.8l-0.4,1.3C270.1,204,269,204.6,268,204.3z"/>
		
			<linearGradient id="SVGID_41_" gradientUnits="userSpaceOnUse" x1="444.5179" y1="570.2235" x2="449.5435" y2="541.7218" gradientTransform="matrix(-0.1736 0.9848 -0.9848 -0.1736 886.96 -149.5034)">
			<stop  offset="0" style="stop-color:#2A2C32"/>
			<stop  offset="1" style="stop-color:#6E7880"/>
		</linearGradient>
		<path class="st42" d="M264.8,191c-0.2,1-1.1,1.6-2.1,1.5l-11.8-2.1l-1.1,3.5l10.3,5.9c0.1,0,0.1,0.1,0.2,0.1l6.7,2.2
			c1,0.3,2.1-0.2,2.4-1.2l0.4-1.3l2.1-6.3c0.3-1-0.2-2.1-1.2-2.4l-3.8-1.3l-1.5-0.5L264.8,191z"/>
		
			<linearGradient id="SVGID_42_" gradientUnits="userSpaceOnUse" x1="437.8563" y1="577.8683" x2="437.8563" y2="550.0793" gradientTransform="matrix(-0.1736 0.9848 -0.9848 -0.1736 886.96 -149.5034)">
			<stop  offset="0" style="stop-color:#2A2C32"/>
			<stop  offset="0.2501" style="stop-color:#43484F"/>
			<stop  offset="0.5422" style="stop-color:#5B626A"/>
			<stop  offset="0.8017" style="stop-color:#69727A"/>
			<stop  offset="1" style="stop-color:#6E7880"/>
		</linearGradient>
		<path class="st43" d="M245.4,178.1l-1.3,7.5c-0.2,1,0.5,1.9,1.5,2.1l4,0.7l11.8,2.1c1,0.2,2-0.5,2.1-1.5l0.3-1.8l1-5.7
			c0.2-0.9-0.4-1.8-1.3-2c-0.1,0-0.1-0.1-0.2-0.1l-11.7-2.1l-4.2-0.7C246.5,176.5,245.6,177.2,245.4,178.1z"/>
		
			<linearGradient id="SVGID_43_" gradientUnits="userSpaceOnUse" x1="492.061" y1="564.8253" x2="498.8596" y2="539.4528" gradientTransform="matrix(0.1736 0.9848 -0.9848 0.1736 731.6481 -401.6994)">
			<stop  offset="0" style="stop-color:#2A2C32"/>
			<stop  offset="0.2029" style="stop-color:#32353B"/>
			<stop  offset="0.5337" style="stop-color:#474C53"/>
			<stop  offset="0.9491" style="stop-color:#69737B"/>
			<stop  offset="1" style="stop-color:#6E7880"/>
		</linearGradient>
		<path class="st44" d="M274.3,179.3l-8.5,0c0.9,0.3,1,1.1,0.8,2l-1,5.7l1.5,0.5l14,1.5c1.1,0.1,2.1-0.7,2.2-1.8l0.9-8.3
			c0.1-1.1-0.7-2.1-1.8-2.2l-6.2-0.7l0,1.3C276.2,178.4,275.3,179.3,274.3,179.3z"/>
		
			<linearGradient id="SVGID_44_" gradientUnits="userSpaceOnUse" x1="481.111" y1="575.123" x2="486.1366" y2="546.6213" gradientTransform="matrix(0.1736 0.9848 -0.9848 0.1736 731.6481 -401.6994)">
			<stop  offset="0" style="stop-color:#2A2C32"/>
			<stop  offset="1" style="stop-color:#6E7880"/>
		</linearGradient>
		<path class="st45" d="M266.8,167.9c0.2,1-0.5,1.9-1.5,2.1l-11.8,2.1l0.1,3.7l11.7,2.1c0.1,0,0.1,0.1,0.2,0.1l7-0.2
			c1.1,0,1.9-0.9,1.8-2l0-1.3l-0.2-6.7c0-1.1-0.9-1.9-2-1.8l-4,0.1l-1.6,0.1L266.8,167.9z"/>
		
			<linearGradient id="SVGID_45_" gradientUnits="userSpaceOnUse" x1="474.7648" y1="582.541" x2="474.7648" y2="554.752" gradientTransform="matrix(0.1736 0.9848 -0.9848 0.1736 731.6481 -401.6994)">
			<stop  offset="0" style="stop-color:#2A2C32"/>
			<stop  offset="0.2501" style="stop-color:#43484F"/>
			<stop  offset="0.5422" style="stop-color:#5B626A"/>
			<stop  offset="0.8017" style="stop-color:#69727A"/>
			<stop  offset="1" style="stop-color:#6E7880"/>
		</linearGradient>
		<path class="st46" d="M244.2,162.5l1.3,7.5c0.2,1,1.1,1.7,2.1,1.5l4-0.7l11.8-2.1c1-0.2,1.7-1.1,1.5-2.1l-0.3-1.8l-1-5.7
			c-0.2-0.9-1-1.5-1.9-1.5c-0.1,0-0.1,0-0.2,0l-11.7,2.1l-4.2,0.7C244.6,160.5,244,161.5,244.2,162.5z"/>
		
			<linearGradient id="SVGID_46_" gradientUnits="userSpaceOnUse" x1="524.5545" y1="580.1372" x2="531.353" y2="554.7646" gradientTransform="matrix(0.5 0.866 -0.866 0.5 500.959 -584.8621)">
			<stop  offset="0" style="stop-color:#2A2C32"/>
			<stop  offset="0.2029" style="stop-color:#32353B"/>
			<stop  offset="0.5337" style="stop-color:#474C53"/>
			<stop  offset="0.9491" style="stop-color:#69737B"/>
			<stop  offset="1" style="stop-color:#6E7880"/>
		</linearGradient>
		<path class="st47" d="M271.7,153.7l-8,2.9c0.9,0,1.3,0.7,1.4,1.6l1,5.7l1.6-0.1l13.7-3.3c1.1-0.3,1.7-1.4,1.5-2.4l-2-8.1
			c-0.3-1.1-1.4-1.7-2.4-1.5l-6.1,1.5l0.5,1.2C273.1,152.1,272.6,153.3,271.7,153.7z"/>
		
			<linearGradient id="SVGID_47_" gradientUnits="userSpaceOnUse" x1="513.4835" y1="590.467" x2="518.5092" y2="561.9653" gradientTransform="matrix(0.5 0.866 -0.866 0.5 500.959 -584.8621)">
			<stop  offset="0" style="stop-color:#2A2C32"/>
			<stop  offset="1" style="stop-color:#6E7880"/>
		</linearGradient>
		<path class="st48" d="M260.7,145.5c0.5,0.9,0.2,2-0.7,2.5l-10.4,6l1.4,3.4l11.7-2.1c0.1,0,0.1,0,0.2,0l6.5-2.6
			c1-0.4,1.5-1.5,1.1-2.5l-0.5-1.2l-2.5-6.2c-0.4-1-1.5-1.5-2.5-1.1l-3.8,1.5l-1.5,0.6L260.7,145.5z"/>
		
			<linearGradient id="SVGID_48_" gradientUnits="userSpaceOnUse" x1="506.9215" y1="598.009" x2="506.9215" y2="570.22" gradientTransform="matrix(0.5 0.866 -0.866 0.5 500.959 -584.8621)">
			<stop  offset="0" style="stop-color:#2A2C32"/>
			<stop  offset="0.2501" style="stop-color:#43484F"/>
			<stop  offset="0.5422" style="stop-color:#5B626A"/>
			<stop  offset="0.8017" style="stop-color:#69727A"/>
			<stop  offset="1" style="stop-color:#6E7880"/>
		</linearGradient>
		<path class="st49" d="M237.6,148.1l3.8,6.6c0.5,0.9,1.6,1.2,2.5,0.7l3.6-2.1l10.4-6c0.9-0.5,1.2-1.6,0.7-2.5l-0.9-1.6l-2.9-5
			c-0.5-0.8-1.4-1.1-2.3-0.7c-0.1,0-0.1,0-0.2,0.1l-10.3,5.9l-3.7,2.1C237.4,146.1,237.1,147.3,237.6,148.1z"/>
		
			<linearGradient id="SVGID_49_" gradientUnits="userSpaceOnUse" x1="549.9293" y1="606.9122" x2="556.7278" y2="581.5396" gradientTransform="matrix(0.766 0.6428 -0.6428 0.766 220.3022 -678.1808)">
			<stop  offset="0" style="stop-color:#2A2C32"/>
			<stop  offset="0.2029" style="stop-color:#32353B"/>
			<stop  offset="0.5337" style="stop-color:#474C53"/>
			<stop  offset="0.9491" style="stop-color:#69737B"/>
			<stop  offset="1" style="stop-color:#6E7880"/>
		</linearGradient>
		<path class="st50" d="M260.4,130.5l-6.5,5.5c0.9-0.4,1.4,0.2,1.9,1l2.9,5l1.5-0.6l11.7-7.8c0.9-0.6,1.2-1.9,0.5-2.8l-4.7-7
			c-0.6-0.9-1.9-1.2-2.8-0.5l-5.2,3.5l0.9,1C261.3,128.5,261.2,129.8,260.4,130.5z"/>
		
			<linearGradient id="SVGID_50_" gradientUnits="userSpaceOnUse" x1="538.9563" y1="617.196" x2="543.9819" y2="588.6943" gradientTransform="matrix(0.766 0.6428 -0.6428 0.766 220.3022 -678.1808)">
			<stop  offset="0" style="stop-color:#2A2C32"/>
			<stop  offset="1" style="stop-color:#6E7880"/>
		</linearGradient>
		<path class="st51" d="M247.4,126.6c0.8,0.7,0.9,1.8,0.2,2.6l-7.7,9.2l2.5,2.7l10.3-5.9c0.1,0,0.1,0,0.2-0.1l5.2-4.7
			c0.8-0.7,0.9-1.9,0.1-2.7l-0.9-1l-4.5-5c-0.7-0.8-1.9-0.9-2.7-0.1l-3,2.7l-1.2,1.1L247.4,126.6z"/>
		
			<linearGradient id="SVGID_51_" gradientUnits="userSpaceOnUse" x1="532.5578" y1="624.5992" x2="532.5578" y2="596.8102" gradientTransform="matrix(0.766 0.6428 -0.6428 0.766 220.3022 -678.1808)">
			<stop  offset="0" style="stop-color:#2A2C32"/>
			<stop  offset="0.2501" style="stop-color:#43484F"/>
			<stop  offset="0.5422" style="stop-color:#5B626A"/>
			<stop  offset="0.8017" style="stop-color:#69727A"/>
			<stop  offset="1" style="stop-color:#6E7880"/>
		</linearGradient>
		<path class="st52" d="M226.5,136.9l5.8,4.9c0.8,0.6,1.9,0.5,2.6-0.2l2.6-3.1l7.7-9.2c0.7-0.8,0.6-1.9-0.2-2.6l-1.4-1.2l-4.4-3.7
			c-0.7-0.6-1.7-0.5-2.4,0.1c0,0-0.1,0.1-0.2,0.1l-7.6,9.1l-2.7,3.3C225.7,135.1,225.8,136.3,226.5,136.9z"/>
		
			<linearGradient id="SVGID_52_" gradientUnits="userSpaceOnUse" x1="564.1168" y1="639.541" x2="570.9153" y2="614.1684" gradientTransform="matrix(0.9397 0.342 -0.342 0.9397 -74.0359 -669.9021)">
			<stop  offset="0" style="stop-color:#2A2C32"/>
			<stop  offset="0.2029" style="stop-color:#32353B"/>
			<stop  offset="0.5337" style="stop-color:#474C53"/>
			<stop  offset="0.9491" style="stop-color:#69737B"/>
			<stop  offset="1" style="stop-color:#6E7880"/>
		</linearGradient>
		<path class="st53" d="M241.9,112.5l-4.2,7.4c0.7-0.6,1.4-0.3,2.1,0.3l4.4,3.7l1.2-1.1l8.3-11.3c0.7-0.9,0.5-2.2-0.4-2.8l-6.8-4.9
			c-0.9-0.6-2.2-0.5-2.8,0.5l-3.7,5.1l1.2,0.6C242.1,110.4,242.4,111.6,241.9,112.5z"/>
		
			<linearGradient id="SVGID_53_" gradientUnits="userSpaceOnUse" x1="553.0458" y1="649.921" x2="558.0714" y2="621.4192" gradientTransform="matrix(0.9397 0.342 -0.342 0.9397 -74.0359 -669.9021)">
			<stop  offset="0" style="stop-color:#2A2C32"/>
			<stop  offset="1" style="stop-color:#6E7880"/>
		</linearGradient>
		<path class="st54" d="M228.4,113.3c0.9,0.4,1.4,1.4,1.1,2.3l-4.1,11.3l3.3,1.7l7.6-9.1c0-0.1,0.1-0.1,0.2-0.1l3.3-6.2
			c0.5-0.9,0.1-2.1-0.8-2.6l-1.2-0.6l-5.9-3.1c-0.9-0.5-2.1-0.1-2.6,0.8l-1.9,3.6l-0.8,1.4L228.4,113.3z"/>
		
			<linearGradient id="SVGID_54_" gradientUnits="userSpaceOnUse" x1="546.5082" y1="657.5596" x2="546.5082" y2="629.7706" gradientTransform="matrix(0.9397 0.342 -0.342 0.9397 -74.0359 -669.9021)">
			<stop  offset="0" style="stop-color:#2A2C32"/>
			<stop  offset="0.2501" style="stop-color:#43484F"/>
			<stop  offset="0.5422" style="stop-color:#5B626A"/>
			<stop  offset="0.8017" style="stop-color:#69727A"/>
			<stop  offset="1" style="stop-color:#6E7880"/>
		</linearGradient>
		<path class="st55" d="M212.3,130.2l7.2,2.6c0.9,0.3,2-0.1,2.3-1.1l1.4-3.9l4.1-11.3c0.3-1-0.1-2-1.1-2.4l-1.7-0.6l-5.4-2
			c-0.9-0.3-1.8,0.1-2.2,0.9c0,0.1-0.1,0.1-0.1,0.2l-4.1,11.1l-1.5,4C210.9,128.8,211.4,129.8,212.3,130.2z"/>
	</g>
	<g class="st1">
		<text transform="matrix(1 0 0 1 28.8687 304.8301)"><tspan x="0" y="0" class="st56 st57 st58 st59">D</tspan><tspan x="32.2" y="0" class="st56 st57 st58 st60">O</tspan><tspan x="66.2" y="0" class="st56 st57 st58 st61">MI</tspan><tspan x="106.5" y="0" class="st56 st57 st58 st60">N</tspan><tspan x="137.7" y="0" class="st56 st57 st58 st62">O</tspan><tspan x="172.4" y="0" class="st63 st64 st58 st65">M</tspan><tspan x="210" y="0" class="st63 st64 st58 st60">A</tspan><tspan x="241.2" y="0" class="st63 st64 st58 st65">T</tspan><tspan x="268.6" y="0" class="st63 st64 st58 st59">R</tspan><tspan x="298.8" y="0" class="st63 st64 st58">I</tspan></text>
		<g>
			<path class="st63" d="M345.6,276.9h3.7v-3.4c0-0.6-0.4-1.1-0.9-1.1h-5.8c-0.5,0-0.9,0.5-0.9,1.1v4.4c0,0.6,0.4,1.1,0.9,1.1h2.1
				V278C344.6,277.4,345,276.9,345.6,276.9z"/>
			<path class="st63" d="M351.4,283.5h3.2v-3.4c0-0.6-0.4-1.1-0.9-1.1h-3.3h-2.5c-0.5,0-0.9,0.5-0.9,1.1v1.1v3.4
				c0,0.6,0.4,1.1,0.9,1.1h2.6v-1.1C350.5,283.9,350.9,283.5,351.4,283.5z"/>
			<path class="st63" d="M368.7,278v1.1h2.1c0.5,0,0.9-0.5,0.9-1.1v-4.4c0-0.6-0.4-1.1-0.9-1.1H365c-0.5,0-0.9,0.5-0.9,1.1l0,3.4
				h3.7C368.3,276.9,368.7,277.4,368.7,278z"/>
			<path class="st63" d="M362.6,284.5v1.1h2.7c0.5,0,0.9-0.5,0.9-1.1v-3.4v-1.1c0-0.6-0.4-1.1-0.9-1.1h-1.4h-4.5
				c-0.5,0-0.9,0.5-0.9,1.1v3.4h3.1C362.2,283.5,362.6,283.9,362.6,284.5z"/>
			<path class="st63" d="M345.6,300.6h3.7v3.4c0,0.6-0.4,1.1-0.9,1.1h-5.8c-0.5,0-0.9-0.5-0.9-1.1v-4.4c0-0.6,0.4-1.1,0.9-1.1h2.1
				v1.1C344.6,300.1,345,300.6,345.6,300.6z"/>
			<path class="st63" d="M351.4,294.1h3.2v3.4c0,0.6-0.4,1.1-0.9,1.1h-3.3h-2.5c-0.5,0-0.9-0.5-0.9-1.1v-1.1V293
				c0-0.6,0.4-1.1,0.9-1.1h2.6v1.1C350.5,293.6,350.9,294.1,351.4,294.1z"/>
			<path class="st63" d="M368.7,299.5v-1.1h2.1c0.5,0,0.9,0.5,0.9,1.1v4.4c0,0.6-0.4,1.1-0.9,1.1H365c-0.5,0-0.9-0.5-0.9-1.1l0-3.4
				h3.7C368.3,300.6,368.7,300.1,368.7,299.5z"/>
			<path class="st63" d="M362.6,293V292h2.7c0.5,0,0.9,0.5,0.9,1.1v3.4v1.1c0,0.6-0.4,1.1-0.9,1.1h-1.4h-4.5c-0.5,0-0.9-0.5-0.9-1.1
				v-3.4h3.1C362.2,294.1,362.6,293.6,362.6,293z"/>
			<path class="st63" d="M360.6,290.9v-1.1v-2.3v-1.1c0-0.6-0.4-1.1-0.9-1.1H359h-4.8h-0.9c-0.5,0-0.9,0.5-0.9,1.1v1.1v2.3v1.1
				c0,0.6,0.4,1.1,0.9,1.1h0.2h5.6h0.7C360.2,292,360.6,291.5,360.6,290.9z"/>
		</g>
	</g>
</g>
<g id="レイヤー_4">
	<text transform="matrix(1 0 0 1 28.5801 216.0547)"><tspan x="0" y="0" class="st56 st57 st58 st59">D</tspan><tspan x="32.2" y="0" class="st56 st57 st58 st60">O</tspan><tspan x="66.2" y="0" class="st56 st57 st58 st61">MI</tspan><tspan x="106.5" y="0" class="st56 st57 st58 st60">N</tspan><tspan x="137.7" y="0" class="st56 st57 st58 st62">O</tspan><tspan x="172.4" y="0" class="st63 st64 st58 st65">M</tspan><tspan x="210" y="0" class="st63 st64 st58 st60">A</tspan><tspan x="241.2" y="0" class="st63 st64 st58 st65">T</tspan><tspan x="268.6" y="0" class="st63 st64 st58 st59">R</tspan><tspan x="298.8" y="0" class="st63 st64 st58">I</tspan></text>
	<g>
		<path class="st63" d="M345.3,188.2h3.7v-3.4c0-0.6-0.4-1.1-0.9-1.1h-5.8c-0.5,0-0.9,0.5-0.9,1.1v4.4c0,0.6,0.4,1.1,0.9,1.1h2.1
			v-1.1C344.3,188.7,344.7,188.2,345.3,188.2z"/>
		<path class="st63" d="M351.1,194.7h3.2v-3.4c0-0.6-0.4-1.1-0.9-1.1h-3.3h-2.5c-0.5,0-0.9,0.5-0.9,1.1v1.1v3.4
			c0,0.6,0.4,1.1,0.9,1.1h2.6v-1.1C350.2,195.2,350.6,194.7,351.1,194.7z"/>
		<path class="st63" d="M368.4,189.2v1.1h2.1c0.5,0,0.9-0.5,0.9-1.1v-4.4c0-0.6-0.4-1.1-0.9-1.1h-5.8c-0.5,0-0.9,0.5-0.9,1.1l0,3.4
			h3.7C368,188.2,368.4,188.7,368.4,189.2z"/>
		<path class="st63" d="M362.3,195.8v1.1h2.7c0.5,0,0.9-0.5,0.9-1.1v-3.4v-1.1c0-0.6-0.4-1.1-0.9-1.1h-1.4h-4.5
			c-0.5,0-0.9,0.5-0.9,1.1v3.4h3.1C361.9,194.7,362.3,195.2,362.3,195.8z"/>
		<path class="st63" d="M345.3,211.8h3.7v3.4c0,0.6-0.4,1.1-0.9,1.1h-5.8c-0.5,0-0.9-0.5-0.9-1.1v-4.4c0-0.6,0.4-1.1,0.9-1.1h2.1
			v1.1C344.3,211.4,344.7,211.8,345.3,211.8z"/>
		<path class="st63" d="M351.1,205.3h3.2v3.4c0,0.6-0.4,1.1-0.9,1.1h-3.3h-2.5c-0.5,0-0.9-0.5-0.9-1.1v-1.1v-3.4
			c0-0.6,0.4-1.1,0.9-1.1h2.6v1.1C350.2,204.8,350.6,205.3,351.1,205.3z"/>
		<path class="st63" d="M368.4,210.8v-1.1h2.1c0.5,0,0.9,0.5,0.9,1.1v4.4c0,0.6-0.4,1.1-0.9,1.1h-5.8c-0.5,0-0.9-0.5-0.9-1.1l0-3.4
			h3.7C368,211.8,368.4,211.4,368.4,210.8z"/>
		<path class="st63" d="M362.3,204.2v-1.1h2.7c0.5,0,0.9,0.5,0.9,1.1v3.4v1.1c0,0.6-0.4,1.1-0.9,1.1h-1.4h-4.5
			c-0.5,0-0.9-0.5-0.9-1.1v-3.4h3.1C361.9,205.3,362.3,204.8,362.3,204.2z"/>
		<path class="st63" d="M360.4,202.1v-1.1v-2.3v-1.1c0-0.6-0.4-1.1-0.9-1.1h-0.8h-4.8H353c-0.5,0-0.9,0.5-0.9,1.1v1.1v2.3v1.1
			c0,0.6,0.4,1.1,0.9,1.1h0.2h5.6h0.7C360,203.2,360.4,202.7,360.4,202.1z"/>
	</g>
</g>
<g id="dm_x5F_logo_non-gradation" class="st0">
	<g class="st1">
		<path class="st66" d="M242.9,30.6l-3.4,19.7c1-1.9,2.9-1.8,4.9-1l12.7,4.6l1.7-3.3l9.3-31.7c0.7-2.5-0.7-5.1-3.2-5.8l-18.9-5.4
			c-2.5-0.7-5.1,0.7-5.8,3.3L236,25.1l3.1,0.4C241.5,25.9,243.2,28.1,242.9,30.6z"/>
		<path class="st66" d="M182.6,26.2l3.5,19.7c0.3-2.1,2.1-2.6,4.3-2.6l13.5,0l0.5-3.7l-2.1-32.9c-0.2-2.6-2.4-4.6-5-4.4l-19.6,1.4
			c-2.6,0.2-4.6,2.4-4.4,5.1l1,14.7l3-0.6C179.7,22.2,182.1,23.8,182.6,26.2z"/>
		<path class="st66" d="M124.4,42.7L134.5,60c-0.5-2.1,1.1-3.2,3.1-3.9l12.7-4.6l-0.8-3.6l-13.3-30.2c-1.1-2.4-3.8-3.5-6.2-2.4
			l-18,8c-2.4,1.1-3.5,3.9-2.4,6.3l6,13.5l2.6-1.6C120.3,40,123.1,40.6,124.4,42.7z"/>
		<path class="st66" d="M75.4,78.1l15.4,12.8c-1.2-1.8-0.1-3.4,1.6-4.7l10.3-8.7l-2-3.2L77.9,50.5c-1.8-1.9-4.8-2-6.7-0.1L57,64
			c-1.9,1.8-1.9,4.8-0.1,6.7l10.2,10.6l1.9-2.4C70.6,76.9,73.4,76.6,75.4,78.1z"/>
		<path class="st66" d="M41.4,128.2l18.8,6.8c-1.7-1.3-1.2-3.1-0.1-5l6.8-11.7l-3-2.3l-29.6-14.6c-2.3-1.2-5.2-0.2-6.3,2.2
			l-8.6,17.7c-1.1,2.4-0.2,5.2,2.2,6.3l13.2,6.5l1-2.9C36.5,128.7,39.1,127.4,41.4,128.2z"/>
		<path class="st66" d="M26.6,186.8l20-0.1c-2.1-0.6-2.2-2.5-1.8-4.7l2.3-13.3l-3.6-1.1L10.8,164c-2.6-0.3-4.9,1.6-5.2,4.2
			l-2.1,19.6c-0.3,2.6,1.6,4.9,4.2,5.2l14.6,1.5l-0.1-3.1C22.2,189,24.2,186.9,26.6,186.8z"/>
		<path class="st66" d="M32.8,246.9l18.8-6.9c-2.2,0.1-3-1.6-3.3-3.7L45.9,223l-3.7,0.2L10.1,231c-2.5,0.6-4.1,3.2-3.4,5.7l4.7,19.1
			c0.6,2.5,3.2,4.1,5.7,3.4l14.3-3.6l-1.2-2.9C29.4,250.5,30.5,247.9,32.8,246.9z"/>
		<path class="st66" d="M59.1,301.4l15.3-12.9c-2,0.8-3.3-0.5-4.4-2.4l-6.7-11.7l-3.5,1.4l-27.4,18.3c-2.2,1.5-2.8,4.4-1.3,6.6
			l11,16.3c1.5,2.2,4.4,2.7,6.6,1.3l12.2-8.2l-2.1-2.3C57.1,305.9,57.3,303,59.1,301.4z"/>
		<path class="st66" d="M102.5,343.5l10-17.4c-1.6,1.5-3.3,0.7-5-0.7l-10.3-8.7l-2.8,2.5l-19.5,26.6c-1.5,2.1-1.1,5.1,1.1,6.6
			L91.8,364c2.1,1.5,5.1,1.1,6.6-1.1l8.7-11.9l-2.7-1.5C102.2,348.4,101.3,345.7,102.5,343.5z"/>
		<path class="st66" d="M157.7,368.3l3.4-19.7c-1,1.9-2.9,1.8-4.9,1l-12.7-4.6l-1.7,3.3l-9.3,31.7c-0.7,2.5,0.7,5.1,3.2,5.8
			l18.9,5.4c2.5,0.7,5.1-0.7,5.8-3.3l4.1-14.1l-3.1-0.4C159.1,373,157.3,370.7,157.7,368.3z"/>
		<path class="st66" d="M218,372.6l-3.5-19.7c-0.3,2.1-2.1,2.6-4.3,2.6l-13.5,0l-0.5,3.7l2.1,32.9c0.2,2.6,2.4,4.6,5,4.4l19.6-1.4
			c2.6-0.2,4.6-2.4,4.4-5.1l-1-14.7l-3,0.6C220.9,376.6,218.5,375.1,218,372.6z"/>
		<path class="st66" d="M276.2,356.1l-10.1-17.3c0.5,2.1-1.1,3.2-3.1,3.9l-12.7,4.6l0.8,3.6l13.3,30.2c1.1,2.4,3.8,3.5,6.2,2.4l18-8
			c2.4-1.1,3.5-3.9,2.4-6.3l-6-13.5l-2.6,1.6C280.3,358.9,277.5,358.2,276.2,356.1z"/>
		<path class="st66" d="M325.2,320.7l-15.4-12.8c1.2,1.8,0.1,3.4-1.6,4.7l-10.3,8.7l2,3.2l22.8,23.9c1.8,1.9,4.8,2,6.7,0.1
			l14.2-13.7c1.9-1.8,1.9-4.8,0.1-6.7l-10.2-10.6l-1.9,2.4C330,321.9,327.2,322.3,325.2,320.7z"/>
		<path class="st66" d="M359.2,270.7l-18.8-6.8c1.7,1.3,1.2,3.1,0.1,5l-6.8,11.7l3,2.3l29.6,14.6c2.4,1.2,5.2,0.2,6.3-2.2l8.6-17.7
			c1.1-2.4,0.2-5.2-2.2-6.3l-13.2-6.5l-1,3C364.1,270.2,361.5,271.5,359.2,270.7z"/>
		<path class="st66" d="M374,212.1l-20,0.1c2.1,0.6,2.2,2.5,1.8,4.7l-2.3,13.3l3.6,1.1l32.8,3.6c2.6,0.3,4.9-1.6,5.2-4.2L397,211
			c0.3-2.6-1.6-4.9-4.2-5.2l-14.6-1.5l0.1,3.1C378.4,209.9,376.4,212,374,212.1z"/>
		<path class="st66" d="M367.8,151.9l-18.8,6.9c2.2-0.1,3,1.6,3.3,3.8l2.3,13.3l3.7-0.2l32.1-7.8c2.5-0.6,4.1-3.2,3.4-5.7l-4.7-19.1
			c-0.6-2.5-3.2-4.1-5.7-3.4l-14.3,3.6l1.2,2.9C371.2,148.3,370.1,151,367.8,151.9z"/>
		<path class="st66" d="M341.4,97.5l-15.3,12.9c2-0.8,3.3,0.5,4.4,2.4l6.7,11.7l3.5-1.4l27.4-18.3c2.2-1.5,2.8-4.4,1.3-6.6l-11-16.3
			c-1.5-2.2-4.4-2.7-6.6-1.3l-12.2,8.2l2.1,2.3C343.4,93,343.3,95.8,341.4,97.5z"/>
		<path class="st66" d="M298.1,55.3l-10,17.4c1.6-1.5,3.3-0.7,5,0.7l10.3,8.7l2.8-2.5L325.7,53c1.5-2.1,1.1-5.1-1-6.6l-15.9-11.6
			c-2.1-1.5-5.1-1.1-6.6,1.1l-8.7,11.9l2.7,1.5C298.4,50.4,299.2,53.2,298.1,55.3z"/>
	</g>
	<g class="st1">
		<path class="st67" d="M213.6,43.3c2.4,0,4.3,1.9,4.3,4.3v28.2l8.6,1.2l9.5-26.1c0.1-0.2,0.2-0.3,0.3-0.4l2.3-16.4
			c0.3-2.5-1.4-4.7-3.8-5.1l-3.1-0.4l-15.5-2.2c-2.5-0.3-4.7,1.4-5.1,3.8l-1.3,9.4l-0.5,3.7L213.6,43.3z"/>
		<path class="st67" d="M159.4,48.1c2.2-0.8,4.7,0.3,5.5,2.6l9.6,26.5l8.5-1.8l0-27.8c0-0.2,0.1-0.3,0.1-0.5l-3.4-16.2
			c-0.5-2.5-2.9-4-5.3-3.5l-3,0.6L156,31.3c-2.4,0.5-4,2.9-3.5,5.3l2,9.3l0.8,3.7L159.4,48.1z"/>
		<path class="st67" d="M110.1,71.3c1.8-1.5,4.5-1.3,6,0.5l18.1,21.6l7.4-4.6l-9.5-26.2c-0.1-0.2,0-0.3-0.1-0.5l-8.7-14
			c-1.3-2.1-4.1-2.8-6.2-1.4l-2.6,1.6l-13.3,8.3c-2.1,1.3-2.8,4.1-1.4,6.2l5,8l2,3.2L110.1,71.3z"/>
		<path class="st67" d="M71.7,109.8c1.2-2,3.8-2.7,5.9-1.6l24.4,14.1l5.3-6.8L89.5,94.2c-0.1-0.1-0.2-0.3-0.3-0.5l-13-10.2
			c-2-1.5-4.8-1.2-6.3,0.8L68,86.8l-9.6,12.3c-1.5,2-1.2,4.8,0.8,6.3l7.5,5.8l3,2.3L71.7,109.8z"/>
		<path class="st67" d="M48.8,159.2c0.4-2.3,2.6-3.9,5-3.5l27.8,4.9l2.7-8.2l-24.1-13.9c-0.2-0.1-0.2-0.2-0.4-0.3L44.1,133
			c-2.4-0.8-4.9,0.5-5.7,2.9l-1,2.9l-4.8,14.9c-0.8,2.4,0.5,4.9,2.9,5.7l9,2.9l3.6,1.2L48.8,159.2z"/>
		<path class="st67" d="M44.2,213.4c-0.4-2.3,1.2-4.5,3.5-5l27.8-4.9l-0.3-8.7l-27.4-4.8c-0.2,0-0.3-0.1-0.5-0.2l-16.5,0.6
			c-2.5,0.1-4.4,2.2-4.3,4.7l0.1,3.1l0.5,15.6c0.1,2.5,2.2,4.4,4.7,4.3l9.5-0.3l3.8-0.1L44.2,213.4z"/>
		<path class="st67" d="M58.4,266c-1.2-2.1-0.5-4.7,1.6-5.9L84.4,246l-3.2-8l-27.4,4.8c-0.2,0-0.3,0-0.5,0L37.9,249
			c-2.3,0.9-3.4,3.6-2.5,5.9l1.2,2.9l5.9,14.5c0.9,2.3,3.5,3.4,5.8,2.5l8.8-3.6l3.5-1.4L58.4,266z"/>
		<path class="st67" d="M89.7,310.5c-1.8-1.5-2-4.2-0.5-6l18.1-21.6l-5.8-6.5l-24.1,13.9c-0.2,0.1-0.3,0.1-0.5,0.2l-12.3,11
			c-1.9,1.7-2,4.5-0.3,6.4l2.1,2.3l10.5,11.6c1.7,1.8,4.5,2,6.3,0.3l7.1-6.4l2.8-2.5L89.7,310.5z"/>
		<path class="st67" d="M134.4,341.6c-2.2-0.8-3.4-3.3-2.6-5.5l9.6-26.5l-7.7-4.1l-17.9,21.3c-0.1,0.2-0.3,0.2-0.4,0.3l-7.8,14.6
			c-1.2,2.2-0.3,4.9,1.9,6.1l2.7,1.5l13.8,7.3c2.2,1.2,4.9,0.4,6.1-1.9l4.5-8.4l1.8-3.3L134.4,341.6z"/>
		<path class="st67" d="M187,355.6c-2.4,0-4.3-1.9-4.3-4.3l0-28.2l-8.6-1.2l-9.5,26.1c-0.1,0.2-0.2,0.3-0.3,0.5l-2.3,16.4
			c-0.4,2.5,1.4,4.8,3.8,5.1l3.1,0.4l15.5,2.2c2.5,0.3,4.7-1.4,5.1-3.8l1.3-9.4l0.5-3.7L187,355.6z"/>
		<path class="st67" d="M241.2,350.7c-2.2,0.8-4.7-0.4-5.5-2.6l-9.7-26.5l-8.5,1.8l0,27.8c0,0.2-0.1,0.3-0.1,0.5l3.4,16.2
			c0.5,2.5,2.9,4,5.3,3.5l3-0.6l15.3-3.3c2.4-0.5,4-2.9,3.5-5.3l-2-9.3l-0.8-3.7L241.2,350.7z"/>
		<path class="st67" d="M290.5,327.6c-1.8,1.5-4.5,1.3-6-0.5l-18.1-21.6l-7.4,4.6l9.5,26.2c0.1,0.2,0,0.3,0.1,0.5l8.7,14
			c1.3,2.1,4.1,2.8,6.2,1.4l2.6-1.6l13.3-8.3c2.1-1.3,2.8-4.1,1.4-6.2l-5-8.1l-2-3.2L290.5,327.6z"/>
		<path class="st67" d="M328.9,289c-1.2,2.1-3.8,2.7-5.9,1.6l-24.4-14.1l-5.3,6.8l17.9,21.3c0.1,0.1,0.2,0.3,0.3,0.5l13,10.2
			c2,1.5,4.8,1.2,6.3-0.8l1.9-2.4l9.6-12.3c1.5-2,1.2-4.8-0.8-6.3l-7.5-5.8l-3-2.3L328.9,289z"/>
		<path class="st67" d="M351.8,239.6c-0.4,2.3-2.6,3.9-5,3.5l-27.8-4.9l-2.7,8.2l24.1,13.9c0.2,0.1,0.3,0.2,0.4,0.3l15.7,5.1
			c2.4,0.8,4.9-0.5,5.7-2.9l1-2.9l4.8-14.9c0.8-2.4-0.5-4.9-2.9-5.7l-9-2.9l-3.6-1.2L351.8,239.6z"/>
		<path class="st67" d="M356.4,185.4c0.4,2.3-1.2,4.5-3.5,5l-27.8,4.9l0.3,8.7l27.4,4.8c0.2,0,0.3,0.1,0.5,0.2l16.5-0.6
			c2.5-0.1,4.4-2.2,4.3-4.7l-0.1-3.1l-0.5-15.6c-0.1-2.5-2.2-4.4-4.6-4.3l-9.5,0.3l-3.8,0.1L356.4,185.4z"/>
		<path class="st67" d="M342.2,132.9c1.2,2.1,0.5,4.7-1.6,5.9l-24.4,14.1l3.2,8l27.4-4.8c0.2,0,0.3,0,0.5,0l15.3-6.2
			c2.3-0.9,3.4-3.6,2.5-5.9l-1.2-2.9l-5.9-14.5c-0.9-2.3-3.5-3.4-5.8-2.5l-8.8,3.6l-3.5,1.4L342.2,132.9z"/>
		<path class="st67" d="M310.8,88.4c1.8,1.5,2,4.2,0.5,6L293.2,116l5.8,6.5l24.1-13.9c0.2-0.1,0.3-0.1,0.5-0.2l12.3-11.1
			c1.9-1.7,2-4.5,0.3-6.4l-2.1-2.3L323.7,77c-1.7-1.8-4.5-2-6.3-0.3l-7.1,6.4l-2.8,2.5L310.8,88.4z"/>
		<path class="st67" d="M266.2,57.2c2.2,0.8,3.4,3.3,2.6,5.5l-9.6,26.5l7.7,4.1L284.7,72c0.1-0.2,0.3-0.2,0.4-0.3l7.8-14.6
			c1.2-2.2,0.3-4.9-1.9-6.1l-2.7-1.5l-13.8-7.3c-2.2-1.2-4.9-0.3-6.1,1.9l-4.5,8.4l-1.8,3.3L266.2,57.2z"/>
	</g>
	<g class="st1">
		<path class="st68" d="M191.7,93.4l17.9,0c2.4,0,4.3-1.9,4.3-4.3v-9.6l0-28.2c0-2.4-1.9-4.3-4.3-4.3l-4.3,0l-13.5,0
			c-2.2,0-3.9,1.6-4.2,3.8c0,0.2-0.1,0.3-0.1,0.5l0,27.8v10C187.4,91.4,189.3,93.4,191.7,93.4z"/>
		<path class="st68" d="M155.9,102.7l16.8-6.1c2.2-0.8,3.4-3.3,2.6-5.5l-3.3-9.1l-9.6-26.5c-0.8-2.2-3.3-3.4-5.5-2.6l-4.1,1.5
			l-12.7,4.6c-2.1,0.7-3.1,2.9-2.7,5c0,0.2,0,0.3,0.1,0.5l9.5,26.2l3.4,9.4C151.3,102.4,153.7,103.5,155.9,102.7z"/>
		<path class="st68" d="M125.5,123.7l13.7-11.5c1.8-1.5,2-4.2,0.5-6l-6.2-7.4l-18.1-21.6c-1.5-1.8-4.2-2.1-6.1-0.5l-3.3,2.8
			l-10.3,8.7c-1.7,1.4-2,3.8-0.8,5.6c0.1,0.1,0.1,0.3,0.3,0.4l17.9,21.3l6.5,7.7C121,125,123.7,125.2,125.5,123.7z"/>
		<path class="st68" d="M104.1,153.8l8.9-15.5c1.2-2,0.5-4.7-1.6-5.8l-8.3-4.8l-24.4-14.1c-2.1-1.2-4.7-0.5-5.9,1.6l-2.2,3.7
			L64,130.6c-1.1,1.9-0.5,4.2,1.2,5.5c0.1,0.1,0.2,0.2,0.4,0.3l24.1,13.9l8.7,5C100.3,156.6,103,155.9,104.1,153.8z"/>
		<path class="st68" d="M94.3,189.5l3.1-17.6c0.4-2.3-1.1-4.5-3.5-5l-9.5-1.7l-27.8-4.9c-2.4-0.4-4.6,1.1-5,3.5l-0.8,4.3l-2.3,13.3
			c-0.4,2.2,0.9,4.2,3,4.8c0.2,0,0.3,0.2,0.5,0.2l27.4,4.8l9.9,1.7C91.7,193.4,93.9,191.8,94.3,189.5z"/>
		<path class="st68" d="M97.3,226.3l-3.1-17.6c-0.4-2.3-2.6-3.9-5-3.5l-9.5,1.7L52,211.8c-2.4,0.4-3.9,2.6-3.5,5l0.7,4.3l2.4,13.3
			c0.4,2.2,2.3,3.6,4.5,3.5c0.2,0,0.3,0,0.5,0L84,233l9.9-1.7C96.2,230.9,97.7,228.6,97.3,226.3z"/>
		<path class="st68" d="M112.7,259.9l-8.9-15.5c-1.2-2-3.8-2.7-5.8-1.6l-8.3,4.8l-24.4,14.1c-2.1,1.2-2.8,3.8-1.6,5.9l2.2,3.7
			l6.8,11.7c1.1,1.9,3.4,2.6,5.4,1.8c0.1-0.1,0.3-0.1,0.5-0.2l24.1-13.9l8.7-5C113.2,264.6,113.9,261.9,112.7,259.9z"/>
		<path class="st68" d="M138.7,286.2L125,274.7c-1.8-1.5-4.5-1.3-6,0.5l-6.2,7.4l-18.1,21.6c-1.5,1.8-1.3,4.5,0.5,6.1l3.3,2.8
			l10.3,8.7c1.7,1.4,4.1,1.3,5.7-0.2c0.1-0.1,0.3-0.2,0.4-0.3l17.9-21.3l6.5-7.7C140.8,290.4,140.5,287.7,138.7,286.2z"/>
		<path class="st68" d="M172.1,302l-16.8-6.1c-2.2-0.8-4.7,0.3-5.5,2.6l-3.3,9.1l-9.7,26.5c-0.8,2.2,0.3,4.7,2.6,5.5l4.1,1.5
			l12.7,4.6c2.1,0.8,4.2-0.2,5.3-2.1c0.1-0.1,0.2-0.3,0.2-0.4l9.5-26.1l3.4-9.4C175.5,305.3,174.3,302.8,172.1,302z"/>
		<path class="st68" d="M208.9,305.5l-17.9,0c-2.4,0-4.3,1.9-4.3,4.3l0,9.6l0,28.2c0,2.4,1.9,4.3,4.3,4.3l4.3,0l13.5,0
			c2.2,0,3.9-1.6,4.2-3.8c0-0.2,0.1-0.3,0.1-0.5l0-27.8l0-10C213.2,307.4,211.3,305.5,208.9,305.5z"/>
		<path class="st68" d="M244.6,296.1l-16.8,6.1c-2.2,0.8-3.4,3.3-2.6,5.5l3.3,9.1l9.6,26.5c0.8,2.2,3.3,3.4,5.5,2.6l4.1-1.5
			l12.7-4.6c2.1-0.7,3.1-2.9,2.7-5c0-0.2,0-0.3-0.1-0.5l-9.5-26.2l-3.4-9.4C249.3,296.5,246.9,295.3,244.6,296.1z"/>
		<path class="st68" d="M275.1,275.1l-13.7,11.5c-1.8,1.5-2,4.2-0.5,6l6.2,7.4l18.1,21.6c1.5,1.8,4.2,2.1,6.1,0.5l3.3-2.8l10.3-8.7
			c1.7-1.4,2-3.8,0.8-5.6c-0.1-0.1-0.1-0.3-0.3-0.4l-17.9-21.3l-6.5-7.7C279.6,273.9,276.9,273.6,275.1,275.1z"/>
		<path class="st68" d="M296.4,245l-8.9,15.5c-1.2,2-0.5,4.7,1.6,5.8l8.3,4.8l24.4,14.1c2.1,1.2,4.7,0.5,5.9-1.6l2.2-3.7l6.7-11.7
			c1.1-1.9,0.5-4.2-1.2-5.5c-0.1-0.1-0.2-0.2-0.4-0.3L311,248.4l-8.7-5C300.2,242.2,297.6,243,296.4,245z"/>
		<path class="st68" d="M306.2,209.4l-3.1,17.6c-0.4,2.3,1.1,4.5,3.5,5l9.5,1.7l27.8,4.9c2.4,0.4,4.6-1.1,5-3.5l0.8-4.3l2.3-13.3
			c0.4-2.2-0.9-4.1-3-4.8c-0.2,0-0.3-0.2-0.5-0.2l-27.4-4.8l-9.9-1.7C308.9,205.5,306.7,207,306.2,209.4z"/>
		<path class="st68" d="M303.3,172.5l3.1,17.6c0.4,2.3,2.6,3.9,5,3.5l9.5-1.7l27.8-4.9c2.4-0.4,3.9-2.6,3.5-5l-0.7-4.3l-2.4-13.3
			c-0.4-2.2-2.3-3.6-4.5-3.5c-0.2,0-0.3,0-0.5,0l-27.4,4.8l-9.9,1.7C304.4,168,302.8,170.2,303.3,172.5z"/>
		<path class="st68" d="M287.8,138.9l8.9,15.5c1.2,2,3.8,2.7,5.8,1.6l8.3-4.8l24.4-14.1c2.1-1.2,2.8-3.8,1.6-5.9l-2.2-3.7l-6.8-11.7
			c-1.1-1.9-3.4-2.6-5.4-1.7c-0.1,0.1-0.3,0.1-0.5,0.2l-24.1,13.9l-8.7,5C287.4,134.3,286.7,136.9,287.8,138.9z"/>
		<path class="st68" d="M261.9,112.7l13.7,11.5c1.8,1.5,4.5,1.3,6-0.5l6.2-7.4l18.1-21.6c1.5-1.8,1.3-4.5-0.5-6.1l-3.3-2.8
			l-10.3-8.7c-1.7-1.4-4.1-1.3-5.7,0.2c-0.1,0.1-0.3,0.2-0.4,0.3l-17.9,21.3l-6.5,7.7C259.8,108.4,260.1,111.1,261.9,112.7z"/>
		<path class="st68" d="M228.5,96.8l16.8,6.1c2.2,0.8,4.7-0.3,5.5-2.6l3.3-9.1l9.7-26.5c0.8-2.2-0.3-4.7-2.6-5.5l-4.1-1.5l-12.7-4.6
			c-2.1-0.8-4.2,0.2-5.2,2.1c-0.1,0.1-0.2,0.3-0.2,0.4l-9.5,26.1l-3.4,9.4C225.1,93.5,226.3,96,228.5,96.8z"/>
	</g>
</g>
<g id="color-colection" class="st0">
	<rect x="28.9" y="62.1" class="st69" width="32.4" height="30.1"/>
	<rect x="69" y="62.1" class="st70" width="32.4" height="30.1"/>
	<rect x="109.1" y="62.1" class="st71" width="32.4" height="30.1"/>
	<rect x="28.9" y="28.1" class="st72" width="32.4" height="30.1"/>
	<rect x="69" y="28.1" class="st73" width="32.4" height="30.1"/>
	<rect x="109.1" y="28.1" class="st74" width="32.4" height="30.1"/>
</g>
</svg>
