<?xml version="1.0" encoding="utf-8"?>
<!-- Generator: Adobe Illustrator 19.1.0, SVG Export Plug-In . SVG Version: 6.00 Build 0)  -->
<svg version="1.1" id="レイヤー_1" xmlns="http://www.w3.org/2000/svg" xmlns:xlink="http://www.w3.org/1999/xlink" x="0px"
	 y="0px" width="340px" height="35px" viewBox="-275 579.5 340 35" style="enable-background:new -275 579.5 340 35;"
	 xml:space="preserve">
<style type="text/css">
	.st0{fill:#32373C;}
	.st1{font-family:'GothamLight';}
	.st2{font-size:46.2286px;}
	.st3{letter-spacing:-2;}
	.st4{letter-spacing:-4;}
	.st5{letter-spacing:-5;}
	.st6{letter-spacing:-3;}
	.st7{fill:#575B64;}
	.st8{font-family:'GothamMedium';}
	.st9{letter-spacing:-1;}
</style>
<g id="レイヤー_4">
	<text transform="matrix(1 0 0 1 -278.8199 613.2176)" class="st0 st1 st2 st3">D</text>
	<text transform="matrix(1 0 0 1 -246.6199 613.2176)" class="st0 st1 st2 st4">O</text>
	<text transform="matrix(1 0 0 1 -212.6199 613.2176)" class="st0 st1 st2 st5">MI</text>
	<text transform="matrix(1 0 0 1 -172.3199 613.2176)" class="st0 st1 st2 st4">N</text>
	<text transform="matrix(1 0 0 1 -141.1199 613.2176)" class="st0 st1 st2 st6">O</text>
	<text transform="matrix(1 0 0 1 -106.4199 613.2176)" class="st7 st8 st2 st9">M</text>
	<text transform="matrix(1 0 0 1 -68.8199 613.2176)" class="st7 st8 st2 st4">A</text>
	<text transform="matrix(1 0 0 1 -37.6199 613.2176)" class="st7 st8 st2 st9">T</text>
	<text transform="matrix(1 0 0 1 -10.2199 613.2176)" class="st7 st8 st2 st3">R</text>
	<text transform="matrix(1 0 0 1 19.9801 613.2176)" class="st7 st8 st2">I</text>
	<g>
		<path class="st7" d="M37.9,585.4h3.7V582c0-0.6-0.4-1.1-0.9-1.1h-5.8c-0.5,0-0.9,0.5-0.9,1.1v4.4c0,0.6,0.4,1.1,0.9,1.1H37v-1.1
			C36.9,585.9,37.3,585.4,37.9,585.4z"/>
		<path class="st7" d="M43.7,591.9h3.2v-3.4c0-0.6-0.4-1.1-0.9-1.1h-3.3h-2.5c-0.5,0-0.9,0.5-0.9,1.1v1.1v3.4c0,0.6,0.4,1.1,0.9,1.1
			h2.6V593C42.8,592.4,43.2,591.9,43.7,591.9z"/>
		<path class="st7" d="M61,586.4v1.1h2.1c0.5,0,0.9-0.5,0.9-1.1V582c0-0.6-0.4-1.1-0.9-1.1h-5.8c-0.5,0-0.9,0.5-0.9,1.1v3.4h3.7
			C60.6,585.4,61,585.9,61,586.4z"/>
		<path class="st7" d="M54.9,593v1.1h2.7c0.5,0,0.9-0.5,0.9-1.1v-3.4v-1.1c0-0.6-0.4-1.1-0.9-1.1h-1.4h-4.5c-0.5,0-0.9,0.5-0.9,1.1
			v3.4h3.1C54.5,591.9,54.9,592.4,54.9,593z"/>
		<path class="st7" d="M37.9,609h3.7v3.4c0,0.6-0.4,1.1-0.9,1.1h-5.8c-0.5,0-0.9-0.5-0.9-1.1V608c0-0.6,0.4-1.1,0.9-1.1H37v1.1
			C36.9,608.6,37.3,609,37.9,609z"/>
		<path class="st7" d="M43.7,602.5h3.2v3.4c0,0.6-0.4,1.1-0.9,1.1h-3.3h-2.5c-0.5,0-0.9-0.5-0.9-1.1v-1.1v-3.4
			c0-0.6,0.4-1.1,0.9-1.1h2.6v1.1C42.8,602,43.2,602.5,43.7,602.5z"/>
		<path class="st7" d="M61,608v-1.1h2.1c0.5,0,0.9,0.5,0.9,1.1v4.4c0,0.6-0.4,1.1-0.9,1.1h-5.8c-0.5,0-0.9-0.5-0.9-1.1V609h3.7
			C60.6,609,61,608.6,61,608z"/>
		<path class="st7" d="M54.9,601.4v-1.1h2.7c0.5,0,0.9,0.5,0.9,1.1v3.4v1.1c0,0.6-0.4,1.1-0.9,1.1h-1.4h-4.5c-0.5,0-0.9-0.5-0.9-1.1
			v-3.4h3.1C54.5,602.5,54.9,602,54.9,601.4z"/>
		<path class="st7" d="M53,599.3v-1.1v-2.3v-1.1c0-0.6-0.4-1.1-0.9-1.1h-0.8h-4.8h-0.9c-0.5,0-0.9,0.5-0.9,1.1v1.1v2.3v1.1
			c0,0.6,0.4,1.1,0.9,1.1h0.2h5.6h0.7C52.6,600.4,53,599.9,53,599.3z"/>
	</g>
</g>
</svg>
